<?xml version="1.0" encoding="UTF-8" standalone="no"?>
<svg
   xmlns:dc="http://purl.org/dc/elements/1.1/"
   xmlns:cc="http://creativecommons.org/ns#"
   xmlns:rdf="http://www.w3.org/1999/02/22-rdf-syntax-ns#"
   xmlns:svg="http://www.w3.org/2000/svg"
   xmlns="http://www.w3.org/2000/svg"
   xmlns:sodipodi="http://sodipodi.sourceforge.net/DTD/sodipodi-0.dtd"
   xmlns:inkscape="http://www.inkscape.org/namespaces/inkscape"
   version="1.1"
   viewBox="0 0 832.50001 816.25003"
   id="svg2"
   width="234.95001mm"
   height="230.36391mm"
   sodipodi:docname="patch.SVG"
   inkscape:version="0.92.5 (2060ec1f9f, 2020-04-08)">
  <metadata
     id="metadata6">
    <rdf:RDF>
      <cc:Work
         rdf:about="">
        <dc:format>image/svg+xml</dc:format>
        <dc:type
           rdf:resource="http://purl.org/dc/dcmitype/StillImage" />
        <dc:title></dc:title>
      </cc:Work>
    </rdf:RDF>
  </metadata>
  <defs
     id="defs4" />
  <sodipodi:namedview
     id="base"
     pagecolor="#ffffff"
     bordercolor="#666666"
     borderopacity="1.0"
     inkscape:pageopacity="0.0"
     inkscape:pageshadow="2"
     inkscape:document-units="mm"
     inkscape:current-layer="layer2"
     showgrid="false"
     fit-margin-top="0"
     fit-margin-left="0"
     fit-margin-right="0"
     fit-margin-bottom="0"
     inkscape:zoom="1.8101934"
     inkscape:cx="482.42886"
     inkscape:cy="365.12113"
     inkscape:window-width="1224"
     inkscape:window-height="656"
     inkscape:window-x="56"
     inkscape:window-y="27"
     inkscape:window-maximized="1" />
  <g
     inkscape:label="Slice 1"
     inkscape:groupmode="layer"
     id="layer1"
     transform="translate(322.41195,416.1591)"
     style="display:inline">
    <path
       style="fill:none;stroke:#e9b5b5;stroke-width:1.25;stroke-opacity:1"
       d="m 162.58802,75.78969 c 0,-1.67817 -0.5625,-3.39887 -1.25,-3.82377 -0.6875,-0.4249 -1.25,-2.09959 -1.25,-3.72154 0,-4.83351 -1.34254,-6.90346 -4.4775,-6.90346 -2.29522,0 -3.53554,1.26335 -5.5225,5.625 -2.73697,6.00801 -3.86513,6.51332 -9.06974,4.0625 -2.87464,-1.35366 -3.25788,-2.19 -2.86726,-6.25732 0.61528,-6.40679 -1.9321,-9.08372 -12.14684,-12.76449 -4.65236,-1.67643 -8.74585,-3.04716 -9.09666,-3.04609 -0.3508,10e-4 -2.86633,-1.25053 -5.59005,-2.78135 -5.37175,-3.01909 -6.88121,-5.82124 -5.6908,-10.56425 0.42042,-1.67506 -0.0126,-4.5876 -0.96229,-6.47229 -0.94966,-1.88468 -2.07334,-6.49156 -2.49702,-10.2375 -0.50738,-4.48566 -1.65852,-7.68618 -3.371937,-9.3750003 -2.5984,-2.56107 -2.60385,-2.561158 -4.45878,-0.0643 -3.82723,5.1519003 -3.67726,8.3542403 0.55678,11.8889703 2.31247,1.93053 3.9446,4.47378 3.9446,6.14663 0,1.56945 0.88477,6.26799 1.966157,10.4412 l 1.96616,7.58767 -4.583207,4.19876 c -2.93081,2.68497 -4.31568,4.89595 -3.84116,6.13251 0.40812,1.06355 0.74205,2.74354 0.74205,3.7333 0,0.98975 1.30806,2.39555 2.9068,3.12399 2.617897,1.1928 2.779957,1.72971 1.63054,5.40207 -1.93349,6.17738 -7.91528,9.53582 -15.63669,8.77913 -5.30359,-0.51974 -6.64423,-0.19325 -8.82699,2.14969 -1.41551,1.51936 -2.57366,3.40212 -2.57366,4.1839 0,0.78177 -1.37708,2.7151 -3.06016,4.29627 -3.59609,3.37835 -5.11205,8.9069 -3.32978,12.1433 0.6944,1.26094 2.14655,7.07386 3.22703,12.91761 1.08046,5.84375 2.15532,11.1875 2.38857,11.875 0.23325,0.6875 0.85804,3.65309 1.3884,6.5902 0.53038,2.93712 1.45294,5.64219 2.05013,6.01128 0.5972,0.36909 1.08581,1.81154 1.08581,3.20545 0,1.39391 1.79002,5.02694 3.97782,8.0734 2.94849,4.10569 3.61363,5.90322 2.57042,6.94643 -1.04322,1.04322 -2.26304,0.39055 -4.71394,-2.52217 -1.8186,-2.16124 -3.71933,-3.92955 -4.22385,-3.92955 -0.50453,0 -2.19306,2.55444 -3.75231,5.67654 l -2.835,5.67653 2.61983,5.57347 c 2.05249,4.3665 3.28245,5.57346 5.67962,5.57346 1.68287,0 4.4845,0.64915 6.22582,1.44255 4.20099,1.91409 8.374,12.7764 7.34483,19.11846 -0.67638,4.16801 -0.26139,4.99387 5.08207,10.1138 3.20023,3.06635 5.45859,5.57519 5.01858,5.57519 -0.44,0 -0.0998,0.84375 0.756107,1.875 2.24874,2.70956 4.70284,2.30415 5.67497,-0.9375 v 5e-5 c 0.46389,-1.54688 3.07354,-5.12505 5.79923,-7.95151 3.45201,-3.57964 5.06112,-6.42438 5.30292,-9.375 0.50189,-6.12448 6.55162,-16.68979 14.5488,-25.4082 4.17698,-4.55368 8.16774,-10.537 10,-14.99294 3.26646,-7.94383 10.00466,-15.3147 26.14029,-28.59467 4.8515,-3.99291 9.7333,-8.65227 10.8484,-10.35416 1.8794,-2.86835 1.8665,-3.45146 -0.1775,-7.98407 -1.2127,-2.68935 -3.5397,-6.14366 -5.171,-7.67624 -1.6314,-1.53257 -2.9661,-3.5322 -4.09281,-4.671569 -2.94394,-0.22797 -6.3733,-13.512481 -6.3733,-15.730371 z"
       id="path949" />
    <path
       style="fill:none;stroke:#e9b5b5;stroke-width:1.25;stroke-opacity:1"
       d="m -5.2355471,145.68996 c 5.34689996,-2.66739 6.10543996,-3.98225 7.19624,-12.47406 1.70191,-13.24928 1.7045,-13.23699 -3.12267,-14.84081 -3.54927,-1.17924 -4.33282,-2.03919 -4.15151,-4.55639 0.12288,-1.70654 -0.003,-3.81183 -0.2783,-4.67843 -0.27599,-0.86658 -0.57265,-1.99158 -0.65926,-2.5 -0.46918,-2.75432 -2.68488,-5.0603 -5.3520999,-5.57017 -2.83194,-0.54136 -2.97881,-0.29239 -2.39504,4.05997 0.36469,2.71899 0.0459,4.99275 -0.77093,5.49754 -2.2478,1.38921 -1.59905,7.9238 1.02982,10.37296 2.75142,2.56335 4.2927999,8.89384 2.65056,10.88603 -1.43109,1.73605 -1.91714,10.71582 -0.73162,13.5168 1.13043,2.67086 1.75122,2.69787 6.5848099,0.28656 z"
       id="path945"
       inkscape:connector-curvature="0" />
    <path
       style="fill:none;stroke:#e9b5b5;stroke-width:1.25;stroke-opacity:1"
       d="m -21.230367,95.83842 c 1.75637,-1.65136 5.89242,-3.90391 9.19123,-5.00566 5.5064399,-1.83905 6.5023499,-1.83816 12.15553986,0.0112 4.86727004,1.592 6.98934004,1.72416 10.12619014,0.63065 2.18267,-0.76088 5.99393,-1.3978 8.46946,-1.41536 3.99891,-0.0284 5.49197,-1.11081 13.38533,-9.70413 8.40404,-9.14927 9.92055,-11.55832 11.08617,-17.61091 0.77063,-4.00155 5.40561,-13.90032 6.52168,-13.92816 0.55429,-0.0139 4.57855,-0.54139 8.94282,-1.17238 7.62648,-1.10263 8.20972,-1.44933 14.99999,-8.91673 12.55892,-13.81128 12.98752,-14.67785 13.36247,-27.01688 0.34095,-11.21984626 -0.51923,-14.4766213 -5.25779,-19.9070083 -2.50885,-2.8751377 -13.76961,-4.6826497 -14.61326,-2.3456377 -0.24993,0.6923247 0.6096,3.3792497 1.91006,5.9709247 1.97781,3.94158804 2.07274,4.82411304 0.5805,5.39673804 -0.98118,0.37651196 -3.10765,3.21228696 -4.72548,6.30172496 -2.75606,5.2629883 -2.80553,5.7181183 -0.78473,7.2186083 1.74323,1.29439 1.93578,2.37205 1.00421,5.62024 -1.37046,4.77855 -0.6265,7.26965 2.464,8.25054 2.9256,0.92855 4.30279,4.5092 2.22984,5.7975 -0.88267,0.54856 -1.79234,0.45291 -2.0215,-0.21257 -0.79153,-2.29878 -7.55943,-1.32416 -8.95834,1.28973 -1.60332,2.99584 -3.54926,3.2276 -4.57855,0.54529 -0.45761,-1.19249 0.28884,-2.68241 1.91423,-3.82089 3.71034,-2.59883 3.51033,-7.71462 -0.35914,-9.1858 -1.6629,-0.63222 -3.78521,-2.72769 -4.71625,-4.65656 -1.28675,-2.66584 -2.58536,-3.5132 -5.41404,-3.53271 -2.04669,-0.0141 -4.32542,0.39451 -5.06387,0.90807 -1.98549,1.38084 -7.19032,0.0674 -8.8863,-2.24241 -1.6901,-2.30183 -0.23178,-6.8566383 3.59247,-11.2205513 2.85623,-3.259275 2.86283,-5.134637 0.0234,-6.654237 -1.3751,-0.735938 -2.35042,-2.86665 -2.52952,-5.5260627 -0.25309,-3.757962 0.14972,-4.439037 3.05696,-5.168699 3.30991,-0.830738 5.39805,0.642462 5.44146,3.839012 0.0349,2.5671127 3.65159,4.5160747 6.8779,3.7063247 3.40078,-0.85355 4.11721,-4.0815127 1.84726,-8.3229497 -0.89616,-1.674488 -0.88737,-3.177575 0.0286,-4.889037 0.95997,-1.7937 0.89932,-3.148926 -0.2212,-4.94315 -2.17318,-3.479838 -0.79551,-4.276438 8.40959,-4.862576 7.80167,-0.496774 8.07702,-0.62865 8.07702,-3.868687 0,-1.8449 0.60869,-3.963062 1.35263,-4.707 1.70635,-1.70635 -1.07969,-6.600925 -3.84081,-6.747625 -1.03775,-0.05512 -4.20033,-0.203512 -7.02794,-0.329725 -7.08177,-0.316087 -9.52232,-2.491713 -7.68687,-6.85245 2.70248,-6.420637 4.98622,-7.795588 13.88026,-8.356762 6.63367,-0.418563 9.85902,-1.395288 15.53478,-4.704363 6.2587,-3.648925 7.21474,-4.719287 7.57318,-8.478788 0.50581,-5.305274 3.29296,-8.619299 6.5358,-7.771274 1.33593,0.34935 2.42897,0.11125 2.42897,-0.529088 0,-1.28915 7.956797,-5.579662 11.874997,-6.403287 1.375,-0.289038 5.45313,-0.473338 9.0625,-0.409563 3.60938,0.06375 6.5625,-0.3406 6.5625,-0.898612 0,-1.933075 -6.90801,-4.1843 -14.00211,-4.563088 -3.9199,-0.209312 -7.8574,-0.847875 -8.749997,-1.419037 -3.17272,-2.0302 -10.07154,-3.981055 -11.77142,-3.328755 -0.94955,0.364392 -1.72647,0.17514 -1.72647,-0.42052 0,-0.93918 -12.12958,-1.33273 -15.625,-0.50696 -0.6875,0.16242 -3.5,0.3126 -6.25,0.33373 -7.33923,0.0564 -10.17088,1.530792 -11.01137,5.733217 -0.94696,4.734813 -3.4284,5.623275 -9.09397,3.25605 -2.49789,-1.043687 -8.59143,-1.990075 -13.54119,-2.103087 -7.67535,-0.175238 -9.53574,0.216262 -12.64334,2.660712 -2.00407,1.5764 -5.15323,3.168075 -6.99813,3.53705 -1.8449001,0.368988 -5.2045501,2.579775 -7.4658901,4.912888 -2.26134,2.333112 -4.82514,4.242012 -5.69733,4.242012 -0.8722,0 -2.1879,1.125 -2.92377,2.5 -0.73588,1.375 -1.92179,2.5 -2.63535,2.5 -0.71356,0 -4.8959099,3.178963 -9.2940999,7.06435 -6.6312,5.858063 -8.536,8.4757 -11.15497,15.329463 -1.73705,4.5458 -4.56617,10.337 -6.28693,12.869325 -1.72076,2.532325 -3.12865,5.5148 -3.12865,6.627725 0,1.112925 -0.54359,3.0392 -1.20797,4.280625 -0.6644,1.241425 -1.36753,4.578612 -1.5625,7.415987 -0.19499,2.837375 -0.75092,5.159688 -1.23539,5.160688 -1.70874,0.0037 -2.51704,8.8686617 -1.22804,13.4686367 3.41709,12.1942883 6.48929,17.4499583 9.21545,15.7650883 1.97963,-1.22346 10.0385,1.16251 12.3665,3.66132 3.52995,3.78895 3.05333,7.45819 -1.21416,9.34715 -3.81265,1.68765 -5.50058,5.14378 -3.83129,7.84475 1.42561,2.30668 0.29893,11.91788 -1.86426,15.90322 l -1.83824,3.38667 -0.23512,-3.125 c -0.12933,-1.71875 -0.34982,-3.96875 -0.48998,-5 -0.14016,-1.03125 -0.33814,-2.78351 -0.43992,-3.89392 -0.10175,-1.11042 -1.31219,-3.45183 -2.68978,-5.20314 -2.04107,-2.59481 -3.14012,-3.01625 -5.9375,-2.27678 -3.89019,1.02835 -8.08426,8.01757 -7.19315,11.98704 0.50479,2.2486 -3.63353,9.75754 -7.81033,14.17178 -3.07042,3.24495 -4.20988,6.66113 -3.42054,10.25498 0.62941,2.86569 1.78109,3.91577 5.39571,4.91972 6.33256,1.75883 10.22404,1.59903 14.4259,-0.59238 5.36989,-2.80059 7.446,-2.25511 9.85711,2.58983 2.77865,5.58351 2.74494,6.35552 -0.3125,7.15506 -1.96001,0.51255 -2.5,1.70501 -2.5,5.52079 0,8.0792 4.28189,10.17648 9.9316,4.86455 z"
       id="path943"
       inkscape:connector-curvature="0" />
    <path
       style="fill:none;stroke:#e9b5b5;stroke-width:1.25;stroke-opacity:1"
       d="m 61.075663,52.44001 c 0.50165,-2.65057 -4.09485,-3.83839 -7.98845,-2.06435 -5.2524,2.39315 -3.37365,5.01645 3.19574,4.46223 2.87324,-0.2424 4.54284,-1.07773 4.79271,-2.39788 z"
       id="path941"
       inkscape:connector-curvature="0" />
    <path
       style="fill:none;stroke:#e9b5b5;stroke-width:1.25;stroke-opacity:1"
       d="m 58.838023,6.9205267 c 0,-1.2221 3.34477,-4.232012 9.75486,-8.778262 0.20891,-0.148175 -0.6404,-1.947088 -1.88737,-3.997563 -1.88387,-3.097787 -2.5353,-3.441187 -3.85268,-2.030925 -0.872,0.933475 -3.08904,2.0746 -4.92676,2.535838 -3.49054,0.876074 -11.58805,7.5063 -11.58805,9.488287 0,0.629925 1.71055,2.855862 3.80123,4.946538 3.66863,3.6686303 3.88663,3.7239203 6.25,1.5851003 1.34682,-1.2188503 2.44877,-2.9059133 2.44877,-3.7490133 z"
       id="path935"
       inkscape:connector-curvature="0" />
    <path
       style="fill:none;stroke:#e9b5b5;stroke-width:1.25;stroke-opacity:1"
       d="m 202.58803,-157.4091 c 0,-0.6875 -0.5625,-1.25 -1.25,-1.25 -0.6875,0 -1.25,0.5625 -1.25,1.25 0,0.6875 0.5625,1.25 1.25,1.25 0.6875,0 1.25,-0.5625 1.25,-1.25 z"
       id="path881"
       inkscape:connector-curvature="0" />
  </g>
  <g
     inkscape:groupmode="layer"
     id="layer2"
     inkscape:label="Slice 2"
     style="display:inline">
    <path
       transform="translate(322.41195,416.1591)"
       style="display:inline;fill:none;stroke:#56ef24;stroke-width:1.25;stroke-opacity:1"
       d="m 269.11353,-31.795286 c 7.1146,-0.543087 12.429,-0.327662 15.3012,0.62025 3.862,1.274575 4.854,1.12945 8.1055,-1.185775 2.268,-1.615 3.4325,-3.347862 3.0026,-4.4682 -0.9364,-2.44015 -7.5927,-2.350775 -10.0788,0.135325 -1.3724,1.372413 -2.9483,1.686463 -5.2232,1.040888 -1.7918,-0.5085 -8.3203,-1.278763 -14.5078,-1.711713 -6.1875,-0.43295 -10.4063,-1.151937 -9.375,-1.597737 5.7288,-2.476563 12.8466,-3.355988 21.4303,-2.647813 12.5083,1.031988 15.791,0.178113 16.2994,-4.239587 0.305,-2.64965 1.3236,-3.70775 4.4578,-4.63045 6.746,-1.986025 4.8173,-4.486325 -3.8831,-5.033975 -2.8815,-0.181363 -7.7569,-0.767513 -10.8342,-1.302538 l -5.5952,-0.972787 4.375,-2.06935 c 7.6866,-3.635763 12.4947,-6.8889 12.0762,-8.170838 -0.525,-1.6082 -9.2767,-3.189187 -13.3459,-2.410925 -1.7296,0.330788 -5.2766,2.554425 -7.8821,4.941425 -6.2069,5.686226 -8.692,5.90365 -5.8043,0.507813 0.7117,-1.3298 2.3306,-2.417825 3.5976,-2.417825 1.2669,0 3.0978,-1.196225 4.0686,-2.658275 1.3041,-1.964138 3.4655,-2.821675 8.2774,-3.284038 3.5819,-0.344162 6.5125,-0.789437 6.5125,-0.989487 0,-2.291937 -2.0952,-4.3182 -4.4651,-4.3182 -1.6212,0 -5.6041,-0.901925 -8.851,-2.004262 -5.0686,-1.72085 -6.0912,-1.754088 -7.2312,-0.235038 -0.7302,0.973075 -2.1715,2.105162 -3.2027,2.51575 -1.0313,0.410587 -4.125,1.657662 -6.875,2.771275 l -5,2.024762 3.75,-3.229825 c 4.052,-3.489987 12.2102,-8.092662 14.3441,-8.092662 0.7253,0 4.4958,-1.793 8.3788,-3.984462 6.3968,-3.6101 6.8137,-4.094375 4.438,-5.154475 -3.4486,-1.538813 -10.9803,-0.0625 -13.7284,2.690925 -3.254,3.260475 -8.1028,4.971437 -10.9325,3.8577 -1.375,-0.541188 -4.375,-1.023513 -6.6667,-1.071825 -6.185,-0.130425 -4.3389,-2.66935 3.9501,-5.432325 4.8636,-1.621213 7.642,-3.358513 8.7485,-5.470288 0.8918,-1.702012 2.9932,-3.774672 4.6697,-4.605912 2.1144,-1.0483 3.1684,-2.74728 3.4401,-5.54534 0.4378,-4.50914 -1.4217,-5.25721 -5.4653,-2.19875 -1.3345,1.00938 -3.6017,1.85313 -5.0381,1.875 -1.4365,0.0219 -4.6602,2.25368 -7.1638,4.95959 -3.5539,3.84109 -5.8032,5.107487 -10.2585,5.7756 -7.154,1.0728 -8.544,-0.09462 -2.9705,-2.49464 2.34,-1.0076 5.942,-3.25352 8.0045,-4.99095 3.7119,-3.12689 3.7214,-3.16701 0.9375,-3.95519 -1.5469,-0.43792 -2.8125,-1.18063 -2.8125,-1.65045 0,-1.7905 3.1142,-3.85421 5.8162,-3.85421 7.514,0 12.9998,-6.28224 8.4139,-9.63552 -1.4619,-1.06897 -2.4865,-1.22047 -2.7574,-0.40774 -0.2371,0.7113 -2.3529,1.29326 -4.7019,1.29326 -2.349,0 -4.2708,0.49408 -4.2708,1.09795 0,1.04634 -10.1282,4.19059 -10.9266,3.39213 -1.2142,-1.21419 1.6916,-4.6266 4.5019,-5.28689 1.8148,-0.42638 4.7827,-2.15306 6.5952,-3.83709 2.8863,-2.68156 4.0119,-2.95444 9.0625,-2.19705 3.1718,0.47565 5.7441,0.37906 5.7162,-0.21462 -0.028,-0.59369 -1.7155,-3.02693 -3.75,-5.40722 -2.0346,-2.38027 -3.6992,-5.55447 -3.6992,-7.05376 0,-4.80051 -8.3089,-6.12517 -8.9756,-1.43095 -0.29,2.04189 -1.2599,2.83045 -3.5398,2.878 -1.7271,0.036 -5.3733,1.58291 -8.1026,3.4375 -6.886,4.67915 -8.7765,4.46285 -6.0352,-0.6905 1.1886,-2.23437 2.0401,-4.68757 1.8922,-5.45155 -0.1479,-0.76397 1.7065,-3.54577 4.121,-6.18177 2.4145,-2.63599 4.39,-5.7746 4.39,-6.97468 0,-1.20007 0.5625,-2.5296 1.25,-2.9545 2.0138,-1.24461 1.4375,-3.125 -0.9578,-3.125 -1.2143,0 -4.4486,2.57866 -7.1875,5.73036 -4.7994,5.52292 -14.58,11.44365 -15.3574,9.29674 -0.2077,-0.5736 1.0908,-4.53156 2.8854,-8.79547 1.7947,-4.2639 2.9068,-8.10877 2.4714,-8.54413 -0.4353,-0.43536 -3.2255,1.78453 -6.2004,4.93309 -2.9748,3.14856 -7.166,6.45251 -9.3137,7.34212 -3.6581,1.51523 -7.7963,6.0858 -10.7396,11.86164 -1.1806,2.31681 -8.1259,4.17599 -8.0813,2.16326 0.035,-1.58495 1.8339,-3.53685 3.9924,-4.3325 2.3889,-0.88055 4.9325,-8.42723 3.4113,-10.12106 -0.5388,-0.60002 -2.7621,0.93909 -4.9406,3.42028 -3.376,3.84497 -4.333,4.31208 -6.4803,3.16288 -2.1155,-1.13215 -3.1995,-0.68923 -6.7607,2.76243 -2.3327,2.26094 -4.2412,4.92935 -4.2412,5.92981 0,2.06943 -12.886,15.19055 -14.91838,15.19055 -2.50046,0 -1.33475,-2.73785 3.50838,-8.23997 6.1295,-6.96347 22.2406,-20.51003 24.3928,-20.51003 2.4782,0 5.5303,-3.95656 6.2763,-8.136 0.367,-2.05645 1.6684,-4.58275 2.892,-5.614 3.6788,-3.10054 5.5222,-8.30001 3.5292,-9.95411 -1.2663,-1.05095 -2.7871,-0.77196 -6.18,1.13371 -5.6576,3.17769 -5.791,1.30801 -0.2851,-3.99484 3.4603,-3.33258 10.7848,-14.56801 10.7848,-16.54321 0,-1.5642 -15.6148,0.74576 -18.3985,2.72175 -6.7319,4.7786 -13.512,9.09048 -14.3298,9.1131 -0.4693,0.013 -1.2265,-1.15251 -1.6828,-2.58997 -0.632,-1.9915 0.2405,-3.59359 3.6658,-6.73109 4.8556,-4.44757 5.5756,-8.17182 4.6575,-24.09284 -0.198,-3.43364 -2.2131,-3.6966 -3.2517,-0.42433 -0.4169,1.31351 -2.1882,3.32529 -3.9363,4.47064 -3.0974,2.02954 -3.1721,2.00855 -2.9378,-0.82567 0.413,-4.99815 0.01,-7.28314 -1.2864,-7.28314 -0.6875,0 -1.25,1.125 -1.25,2.5 0,1.375 -0.4336,2.5 -0.9636,2.5 -1.3502,0 -7.21358,-10.9895 -6.33314,-11.86994 0.97813,-0.97813 -2.20185,-10.00506 -3.52456,-10.00506 -0.57954,0 -1.13145,1.96875 -1.22648,4.375 -0.26228,6.64195 -1.43153,15.14598 -2.18626,15.90069 -0.78217,0.78219 -2.7633,-3.7387 -3.84171,-8.76672 -0.41183,-1.92006 -1.71638,-3.85733 -2.89901,-4.30506 -1.18264,-0.44771 -2.89873,-1.5538 -3.81353,-2.45796 -2.1791,-2.15375 -4.1733,-0.83178 -3.86317,2.56094 0.3698,4.04557 -1.51045,13.27063 -2.87697,14.11518 -0.6952,0.42965 -1.07555,-1.0281 -0.9041,-3.46521 0.50274,-7.14669 -0.0136,-12.33186 -1.2282,-12.33186 -2.4789,0 -4.82375,3.87217 -5.63966,9.31308 -0.59401,3.96113 -1.44597,5.68692 -2.80746,5.68692 -1.50432,0 -1.78221,0.86228 -1.20614,3.74262 0.61145,3.05724 0.18224,4.11368 -2.34375,5.76877 -1.70075,1.11437 -3.09227,2.8052 -3.09227,3.75737 0,2.08326 -2.0097,2.28583 -3.22173,0.32473 -0.4781,-0.77358 -1.0425,-5.83915 -1.25422,-11.25683 -0.21173,-5.41767 -0.73069,-10.40975 -1.15328,-11.09348 -1.55775,-2.5205 -2.80953,-1.10942 -3.48531,3.9288 -0.38154,2.84458 -1.55749,6.03576 -2.61321,7.09148 -1.72601,1.72602 -2.0507,1.57448 -3.22088,-1.50335 -0.71576,-1.88257 -1.30137,-5.13935 -1.30137,-7.23727 0,-3.21009 -0.39956,-3.70993 -2.52199,-3.1549 -1.387097,0.36274 -3.315657,-0.13416 -4.285707,-1.10421 -2.65283,-2.65283 -4.57079,-2.13379 -3.87543,1.04877 1.96205,8.9799 0.36475,14.64811 -2.42578,8.60821 -0.67865,-1.46889 -2.13957,-2.67071 -3.24648,-2.67071 -1.10692,0 -2.59991,-1.26562 -3.31777,-2.8125 -1.30505,-2.81216 -1.30538,-2.81207 -2.69103,0.70638 -0.7622,1.93537 -1.38581,4.79475 -1.38581,6.35416 0,1.55941 -0.34573,3.18102 -0.76828,3.60357 -1.14406,1.14406 -6.73172,-2.8726 -6.73172,-4.83907 0,-2.56226 -7.14821,-17.64758 -8.86518,-18.70873 -1.10515,-0.68301 -1.25863,0.0263 -0.58372,2.69725 0.50365,1.99317 0.87247,7.90717 0.81962,13.1422 -0.0856,8.48184 0.24285,9.88399 3.0166,12.8769 2.90633,3.13599 4.33099,9.47984 2.12892,9.47984 -1.65944,0 -10.02765,-15.53974 -10.47255,-19.4475 -0.2561,-2.24947 -1.14678,-3.6775 -2.29369,-3.6775 -1.36292,0 -2.04729,1.8776 -2.50585,6.875 l -0.63084,6.875 -3.37367,-6.40651 c -3.71604,-7.05667 -5.1283,-7.96849 -12.34188,-7.96849 -4.40713,0 -4.89776,0.31698 -4.89776,3.16423 0,4.75226 -3.22011,5.15732 -6.83612,0.85993 -2.88276,-3.42596 -8.15321,-6.14745 -8.17178,-4.21963 -0.004,0.45126 -1.6168,1.73561 -3.58322,2.85412 -3.1469,1.78995 -3.59221,2.78311 -3.71624,8.28809 -0.0775,3.43995 -0.7602601,7.86856 -1.5172501,9.84135 l -1.37634,3.58691 -2.7746,-3.45709 -2.7746,-3.45709 -9.28428,1.75554 c -6.1723199,1.1671 -10.3064099,1.36693 -12.3337099,0.59614 -4.75904,-1.80937 -5.33898,1.0614 -1.58085,7.82564 3.29823,5.9365 3.30462,5.9976 0.824,7.88261 -3.29387,2.50299 -4.375,2.44838 -4.375,-0.22102 0,-2.79039 -5.99815,-9.35199 -7.92493,-8.66938 -1.76179,0.62415 -1.57681,2.23343 1.14685,9.97741 1.15733,3.29052 1.77335,6.31364 1.36894,6.71804 -0.4044,0.4044 -2.48969,-0.74096 -4.63398,-2.54526 -4.16495,-3.50456 -7.97778,-4.22151 -9.48461,-1.78343 -0.50888,0.82342 -1.12885,6.58517 -1.37767,12.8039 -0.50228,12.5532 -1.80389,15.37005 -5.09959,11.03614 -1.16601,-1.53332 -3.94814,-3.15051 -6.18251,-3.59375 -4.48884,-0.89047 -4.85299,-0.10812 -2.98361,6.40996 1.609,5.61024 -1.33417,7.92593 -4.51822,3.55494 -2.09626,-2.87771 -3.27038,-3.25367 -10.64552,-3.40887 -11.15939,-0.23482 -13.88502,2.75172 -5.76236,6.31395 1.92891,0.84593 4.41821,3.79327 6.04901,7.16206 1.52417,3.14851 3.24037,5.72456 3.8138,5.72456 0.57342,0 2.80719,1.48481 4.96391,3.29958 5.98163,5.03321 2.96414,6.5619 -5.22496,2.64701 -5.62711,-2.6901 -8.23614,-3.14304 -17.25455,-2.99545 -11.738103,0.19207 -11.521923,-0.015 -9.63924,9.23636 0.5908,2.90311 0.36874,4.0625 -0.7781,4.0625 -0.88266,0 -2.645823,0.76119 -3.918133,1.69153 -2.14718,1.57005 -2.16953,1.8968 -0.31129,4.54981 1.76719,2.52301 17.815443,13.75866 19.651953,13.75866 0.38819,0 1.70262,1.6875 2.92097,3.750002 1.21835,2.0625 3.25894,3.75 4.53464,3.75 1.72889,0 2.53287,1.2632 3.15765,4.961225 1.60379,9.492738 19.77797,21.148675 40.63155,26.058875 5.97883,1.407775 7.27365,0.968288 13.62876,-4.625962 1.65207,-1.454275 3.43367,-2.644138 3.95911,-2.644138 0.52545,0 1.90641,-2.4903 3.06881,-5.534 1.1624,-3.0437 3.3182899,-6.648587 4.7908799,-8.010875 3.49811,-3.2361 16.17832,-9.546637 23.3024301,-11.596887 6.07394,-1.748013 11.15749,-4.40521 20.74981,-10.84603 8.72853,-5.8608 17.9025,-8.30892 29.87519,-7.97236 12.41531,0.349 23.5656,1.21405 27.22023,2.11176 2.52252,0.61963 8.288127,1.43465 15.488537,2.18944 1.48983,0.15618 3.13045,0.70583 3.64584,1.22145 0.51538,0.51563 2.06899,0.9375 3.45248,0.9375 1.38347,0 4.24285,0.54299 6.35416,1.20665 2.11131,0.66365 5.3658,1.51314 7.23218,1.88775 1.86639,0.37461 4.79395,2.08163 6.50569,3.79335 1.71173,1.71174 4.2128,3.112252 5.55794,3.112252 2.31857,0 8.01499,-5.550242 9.25376,-9.016312 0.37498,-1.04918 1.61215,-0.31421 3.55706,2.11314 2.51422,3.13785 2.9875,5.13902 3.01644,12.754197 0.0265,6.967613 0.60209,9.831513 2.51798,12.528187 1.366,1.922676 3.21011,4.902038 4.09801,6.620788 2.0791,4.024538 4.1575,6.562162 6.6544,8.125 1.0984,0.6875 5.1578,3.654087 9.0208,6.592413 4.8729,3.706437 9.0292,5.722749 13.5728,6.584425 7.4208,1.407324 13.4767,3.808062 13.4767,5.342587 0,1.2324 -4.0071,5.408175 -4.6295,4.824325 -0.2382,-0.223437 -1.1221,-0.159825 -1.9643,0.141375 -4.2468,1.518788 2.1672,2.66005 18.7961,3.344375 17.3675,0.714738 24.0477,2.1081 24.0477,5.015912 0,1.285825 9.6472,3.682088 12.5,3.104863 1.0312,-0.20865 6.7802,-0.753813 12.7755,-1.211463 z"
       id="path887"
       inkscape:connector-curvature="0" />
    <path
       transform="translate(322.41195,416.1591)"
       style="display:inline;fill:none;stroke:#b0f72d;stroke-width:1.25;stroke-opacity:1"
       d="m 181.33803,96.34092 c 3.5665,3.4375 7.1963,6.25 8.0663,6.25 0.87,0 4.8588,1.74875 8.8642,3.8861 7.9191,4.2259 15.5418,6.71393 24.3195,7.93784 l 5.625,0.78432 -3.75,-3.20854 c -4.2942,-3.67411 -10.2277,-6.89972 -12.6921,-6.89972 -0.9256,0 -1.6829,-0.6144 -1.6829,-1.36534 0,-0.75093 -1.1654,-2.84686 -2.5897,-4.6576 -2.9943,-3.8066 -1.3178,-5.10463 2.8356,-2.1955 1.5457,1.08264 3.6484,1.96844 4.6728,1.96844 1.0243,0 3.0085,1.41139 4.4093,3.13641 1.9039,2.34449 4.0513,3.27172 8.505,3.67226 3.2768,0.29473 7.0737,0.88999 8.4374,1.32283 1.7263,0.54789 2.4796,0.21293 2.4796,-1.10256 0,-3.17913 -5.3555,-8.2893 -10.5442,-10.06111 -2.7462,-0.9378 -5.3295,-2.78927 -5.8482,-4.19153 -0.8627,-2.33201 -0.4474,-2.49884 5.804,-2.33152 4.808,0.1287 7.195,0.80476 8.3483,2.36455 1.3031,1.76236 4.6659,2.39496 17.4087,3.27478 8.6864,0.59976 16.3819,1.45411 17.1011,1.89856 0.7191,0.44447 1.6311,0.28448 2.0267,-0.35552 0.8392,-1.35788 -6.7909,-6.37715 -9.6944,-6.37715 -1.0878,0 -2.4419,-0.82923 -3.0091,-1.84274 -0.614,-1.09719 -3.2942,-1.98222 -6.6246,-2.1875 -5.1938,-0.32014 -5.6033,-0.59857 -5.7323,-3.89817 -0.1375,-3.51554 -0.079,-3.54443 5.4754,-2.71148 3.0879,0.46306 6.9306,1.44166 8.5394,2.17469 2.1723,0.98976 3.4156,0.92571 4.8309,-0.24889 1.5533,-1.28915 2.4767,-1.20756 4.993,0.44123 3.1001,2.03123 8.1753,2.76012 8.1753,1.17411 0,-0.46681 -0.63,-2.57619 -1.3999,-4.6875 -1.3615,-3.73345 -8.1911,-8.21375 -12.5207,-8.21375 -1.0184,0 -2.9435,-0.88411 -4.278,-1.96469 -2.3023,-1.86421 -2.2187,-1.92974 1.636,-1.28126 2.2344,0.37589 6.5629,1.8225 9.619,3.21469 6.6408,3.02526 8.0432,3.12761 8.9915,0.65626 0.3958,-1.03125 1.5031,-1.875 2.4608,-1.875 1.9278,0 2.2927,-3.44453 0.641,-6.05055 -0.5841,-0.92155 -2.3925,-2.33889 -4.0187,-3.14963 -1.6262,-0.81075 -3.6328,-2.83018 -4.4592,-4.48763 -1.435,-2.87829 -2.9098,-3.41977 -10.7789,-3.95731 -1.9152,-0.13083 -3.7613,-0.68963 -4.1025,-1.24178 -0.3413,-0.55215 -1.5439,-0.64957 -2.6725,-0.2165 -1.4809,0.56827 -1.8498,0.26061 -1.3256,-1.10545 1.6536,-4.30926 0.4302,-4.65739 -23.4173,-6.66344 -6.3345,-0.53285 -12.7115,-1.44942 -17.7974,-2.55801 -1.5386,-0.33536 -3.8203,0.029 -5.0704,0.80976 -1.7911,1.11858 -4.6042,0.70847 -13.269,-1.93446 -6.0477,-1.84468 -11.2408,-3.10909 -11.5401,-2.80979 -0.2993,0.29929 1.2235,3.38776 3.384,6.86326 2.1605,3.4755 3.5552,6.92265 3.0993,7.66032 -1.4823,2.39838 -4.2577,1.41912 -5.9412,-2.09629 -1.3888,-2.9001 -2.4254,-3.4375 -6.6307,-3.4375 -4.1773,0 -5.0476,0.44347 -5.3743,2.73857 -0.3749,2.63457 2.7068,8.77388 5.3609,10.67979 0.7034,0.5051 2.4193,0.92698 3.8132,0.9375 1.394,0.01 3.8114,0.91356 5.3721,2.00676 2.2739,1.59267 2.5425,2.34342 1.3517,3.77822 -1.8692,2.25227 -4.6612,1.39466 -13.1613,-4.04274 -7.6906,-4.91964 -8.7734,-5.105 -9.8581,-1.68751 -1.894,5.96747 -1.7242,10.10201 0.5011,12.20462 4.3438,4.10411 7.3884,6.263 10.0029,7.0928 1.4492,0.45996 3.2262,1.94111 3.9489,3.29145 0.7227,1.35033 1.9877,2.37059 2.8112,2.26724 4.5082,-0.5658 6.5001,1.62021 2.7778,3.04857 -2.7383,1.05078 -9.5451,-2.2666 -13.5741,-6.61548 -3.469,-3.74449 -7.0815,-5.05795 -7.0815,-2.57479 0,0.6875 -1.94897,0.975342 0.82397,4.132999 2.95777,4.726336 6.68613,8.602831 12.92603,14.617001 z"
       id="path1685" />
    <path
       transform="translate(322.41195,416.1591)"
       style="display:inline;fill:none;stroke:#b0f72d;stroke-width:1.25;stroke-opacity:1"
       d="m 245.08803,68.84092 c 0,-1.375 0.5098,-2.5 1.1329,-2.5 0.6232,0 0.8388,1.125 0.4793,2.5 -0.3596,1.375 -0.8695,2.5 -1.133,2.5 -0.2636,0 -0.4792,-1.125 -0.4792,-2.5 z"
       id="path947"
       inkscape:connector-curvature="0" />
    <path
       transform="translate(322.41195,416.1591)"
       style="display:inline;fill:none;stroke:#b0f72d;stroke-width:1.25;stroke-opacity:1"
       d="m 290.90103,43.2159 c 0.8429,-2.65825 -1.7666,-4.29316 -7.7295,-4.84289 -3.4147,-0.3148 -6.6551,-0.61956 -7.2008,-0.67723 -0.5458,-0.0577 -0.827,-1.08925 -0.625,-2.29238 0.2706,-1.6119 -0.6195,-2.29504 -3.3827,-2.59619 -2.0625,-0.22477 -4.3125,-0.99891 -5,-1.7203 -0.8706,-0.91351 1.9243,-1.06145 9.2084,-0.4874 l 10.4584,0.82423 -0.8725,-3.47637 c -0.4799,-1.91198 -1.0635,-3.66727 -1.2968,-3.90061 -0.2334,-0.23335 -4.8283,-0.6733 -10.2109,-0.97769 -5.3826,-0.30437 -14.5679,-1.09436 -20.4116,-1.75553 -5.8438,-0.66117 -11.3282,-1.20674 -12.1875,-1.21239 -0.8594,-0.006 -1.5625,-0.79383 -1.5625,-1.75151 0,-2.07746 -2.6838,-3.25874 -7.4036,-3.25874 -1.897,0 -6.0697,-0.7887 -9.2728,-1.75266 -5.9854,-1.80136 -6.3733,-1.59496 -5.9172,3.14883 0.1269,1.31932 -1.1206,2.28415 -3.5924,2.77852 -4.9023,0.98046 -6.9058,0.13923 -8.6179,-3.61845 -2.4421,-5.35977 -5.2474,-3.1467 -6.8718,5.42106 -1.0131,5.34382 0.9161,6.05567 17.3007,6.38373 6.875,0.13766 13.625,0.46345 15,0.72398 1.375,0.26054 3.3283,0.51675 4.3406,0.56935 1.2665,0.0657 0.9741,0.7026 -0.9375,2.04152 -1.528,1.07023 -2.7781,2.41096 -2.7781,2.97938 0,0.56843 3.6503,1.42442 8.1118,1.9022 4.4615,0.47779 8.4322,1.38706 8.8238,2.02063 0.3915,0.63355 1.9757,1.15191 3.5203,1.15191 1.5446,0 4.6704,1.3738 6.9463,3.05289 3.8586,2.84674 5.0707,3.03665 17.9512,2.8125 7.8929,-0.13737 13.9831,-0.77614 14.2096,-1.49039 z"
       id="path939"
       inkscape:connector-curvature="0" />
    <path
       transform="translate(322.41195,416.1591)"
       style="display:inline;fill:none;stroke:#b0f72d;stroke-width:1.25;stroke-opacity:1"
       d="m 293.50743,13.33813 c 1.5289,-1.52887 -1.517,-3.03383 -7.7047,-3.8069403 -6.5409,-0.817225 -6.8341,-1.013913 -7.2041,-4.833588 l -0.3856,-3.98169996 -12.5,-0.65805 c -6.875,-0.361938 -13.9063,-1.30055004 -15.625,-2.08581204 -5.5777,-2.548325 -7.9889,-3.075163 -16.6603,-3.640176 -4.6944,-0.305875 -8.9131,-0.640849 -9.375,-0.744375 -0.4618,-0.1035 -3.228,0.494688 -6.147,1.329363 -3.3795,0.96635 -6.1038,1.100925 -7.5,0.370487 -1.206,-0.630912 -4.0208,-0.869362 -6.2552,-0.5299 -3.2761,0.497725 -4.0625,1.1947 -4.0625,3.600338 0,2.14978704 0.6984,2.983125 2.5,2.983125 1.375,0 2.5,0.703125 2.5001,1.5625 1e-4,1.138987 3.9811,1.66925 14.6875,1.956325 8.0781,0.216612 15.9415,0.533275 17.4744,0.7037 2.9603,0.32915 5.5121,2.027475 3.0463,2.027475 -0.8021,0 -1.4583,0.613725 -1.4583,1.363828 0,0.86711 2.8454,1.2700103 7.8125,1.1062203 16.8215,-0.5546603 19.9228,-0.1807103 19.1332,2.30705 -0.6741,2.124 0.2141,2.25269 13.2101,1.91406 7.663,-0.19967 14.1941,-0.62443 14.5136,-0.94393 z"
       id="path937"
       inkscape:connector-curvature="0" />
    <path
       transform="translate(322.41195,416.1591)"
       style="display:inline;fill:none;stroke:#b0f72d;stroke-width:1.25;stroke-opacity:1"
       d="m 292.58803,-8.3586483 c 0,-0.98435 0.9548,-3.4060747 2.1218,-5.3816247 1.1669,-1.97555 1.7879,-3.925812 1.3798,-4.333912 -0.4081,-0.4081 -4.1685,-0.120625 -8.3565,0.638762 -5.0895,0.922913 -8.3814,0.970238 -9.9277,0.142713 -1.2723,-0.680913 -3.4657,-0.936663 -4.8743,-0.568313 -1.4085,0.36835 -2.9237,0.08275 -3.3671,-0.634588 -0.4433,-0.717362 -1.5749,-1.009274 -2.5146,-0.648675 -2.6938,1.033675 -3.7023,-2.005299 -1.2585,-3.792224 1.3293,-0.971975 1.8903,-2.426563 1.4144,-3.666825 -0.8178,-2.131188 -4.01,-2.799738 -5.0825,-1.064438 -0.3369,0.545225 -4.4482,0.865237 -9.1362,0.71115 -9.7749,-0.3213 -12.8986,0.30025 -12.8986,2.566538 0,0.932874 -1.6167,1.6465 -3.8757,1.710724 -2.1316,0.06063 -4.8397,0.982726 -6.0181,2.049138 -1.7429,1.577325 -4.6336,1.83655 -15.4994,1.389888 -13.1028,-0.5386 -13.3565,-0.4967 -13.3377,2.2036 0.046,6.641037 -1.2644,6.393125 44.3559,8.3898367 16.5,0.722175 31.6875,1.482488 33.75,1.689575 8.6556,0.869113 13.125,0.391925 13.125,-1.401325 z"
       id="path933"
       inkscape:connector-curvature="0" />
    <path
       transform="translate(322.41195,416.1591)"
       style="display:inline;fill:none;stroke:#b0f72d;stroke-width:1.25;stroke-opacity:1"
       d="m 229.43583,-24.909098 c 3.4871,0 6.9022,-3.01515 6.9022,-6.093912 0,-1.842526 -1.1647,-2.137788 -7.8125,-1.980526 -4.2969,0.101625 -8.3267,-0.099 -8.9552,-0.445987 -1.6173,-0.892725 -14.1176,-0.602538 -15.6815,0.364037 -2.1546,1.331613 -1.4653,4.597438 1.1127,5.271588 1.3275,0.347137 2.7161,1.419475 3.0858,2.382975 0.4737,1.2345 2.8986,1.751825 8.2115,1.751825 5.1777,0 7.5511,0.489412 7.5772,1.5625 0.021,0.86715 0.605,0.589012 1.3121,-0.625 0.7008,-1.203125 2.6122,-2.1875 4.2477,-2.1875 z"
       id="path889"
       inkscape:connector-curvature="0" />
  </g>
  <g
     inkscape:groupmode="layer"
     id="layer4"
     inkscape:label="Slice 4"
     style="display:inline">
    <path
       style="fill:none;stroke:#2e0c0c;stroke-width:1.25;stroke-opacity:1"
       d="m 22.983463,333.24222 c 2.62375,0.14546 5.32119,0.81522 5.99432,1.48836 0.67313,0.67313 3.34989,1.01128 5.94834,0.75143 2.59846,-0.25984 5.9134,-0.0322 7.36655,0.50568 4.36376,1.61552 33.21606,0.96598 33.79164,-0.76073 v 8e-5 c 0.37781,-1.13344 0.91515,-1.14332 2.24308,-0.0412 0.96044,0.7971 3.29038,1.15408 5.17764,0.79331 1.88726,-0.36078 4.4657,-0.10238 5.72986,0.57416 1.26417,0.67656 3.2389,0.84205 4.3883,0.36775 1.1494,-0.4743 9.022217,-0.97386 17.495127,-1.11014 8.47291,-0.13627 15.78541,-0.77591 16.25,-1.42139 0.85365,-1.18606 2.28856,-1.51823 10.2197,-2.36583 13.96158,-1.49208 28.08531,-3.82071 32.50001,-5.3584 1.0312,-0.3592 3.4572,-0.85952 5.3911,-1.11182 1.9338,-0.2523 4.5317,-1.0023 5.7731,-1.66667 1.2414,-0.66436 2.5081,-0.9569 2.8149,-0.65007 0.3069,0.30682 3.6152,-0.61588 7.3519,-2.05043 3.7367,-1.43455 8.7627,-3.36819 11.169,-4.29697 2.4062,-0.92878 5.7812,-1.71408 7.5,-1.74509 1.7187,-0.031 4.7593,-1.46195 6.7569,-3.17986 1.9976,-1.71792 5.1987,-3.12348 7.1137,-3.12348 1.915,0 3.8348,-0.57102 4.2661,-1.26893 1.0299,-1.66637 9.026,-4.98107 12.0159,-4.98107 1.2911,0 2.3474,-0.53611 2.3474,-1.19135 0,-0.65525 1.9687,-2.12559 4.375,-3.26742 2.4062,-1.14185 4.375,-2.57449 4.375,-3.18365 0,-0.60917 1.0618,-1.10758 2.3597,-1.10758 1.2979,0 5.2218,-1.96875 8.7199,-4.375 3.498,-2.40625 7.2229,-4.375 8.2775,-4.375 1.0545,0 2.8806,-1.125 4.0579,-2.5 1.1773,-1.375 2.6319,-2.5 3.2323,-2.5 0.6005,0 2.7255,-1.1633 4.7222,-2.58511 1.9968,-1.42183 3.6305,-2.26558 3.6305,-1.875 0,0.39056 1.0416,-0.27426 2.3148,-1.47739 5.8953,-5.57115 10.591,-9.0625 12.1887,-9.0625 0.9606,0 1.7503,-0.42187 1.755,-0.9375 0.01,-0.51562 2.0824,-2.34375 4.6171,-4.0625 4.9414,-3.35067 7.4043,-5.48609 17.4088,-15.0944 3.5253,-3.38557 7.0409,-6.1556 7.8125,-6.1556 0.7717,0 1.4031,-0.50685 1.4031,-1.12634 0,-0.61948 3.2343,-4.53741 7.1875,-8.70651 3.9531,-4.16909 9.0808,-9.84974 11.395,-12.62366 2.3141,-2.77391 4.9752,-5.04349 5.9136,-5.04349 0.9384,0 2.0458,-1.3531 2.4609,-3.0069 0.4151,-1.65379 1.8321,-3.28862 3.1488,-3.63297 1.5619,-0.40843 2.3942,-1.72388 2.3942,-3.78386 0,-1.96838 0.8662,-3.43274 2.2998,-3.88774 1.265,-0.40148 3.0475,-2.12688 3.9613,-3.83424 0.9137,-1.70736 2.1288,-3.10429 2.7001,-3.10429 0.5713,0 1.0388,-0.8158 1.0388,-1.81288 0,-0.99709 0.7537,-2.26272 1.6748,-2.8125 1.5072,-0.89953 4.3258,-5.1703 11.2529,-17.05043 1.2665,-2.17205 3.7161,-5.44786 5.4437,-7.27958 2.9898,-3.16999 6.7758,-9.51333 10.7909,-18.07951 1.0079,-2.15045 2.4257,-4.2765 3.1507,-4.72456 2.7022,-1.67003 16.437,-33.5829 16.437,-38.19147 0,-1.32082 0.4883,-2.70331 1.0852,-3.07221 0.5969,-0.36888 1.4569,-3.47272 1.9112,-6.8974 0.4543,-3.42467 1.3722,-6.56423 2.0398,-6.97682 0.6676,-0.41258 1.2138,-2.09 1.2138,-3.7276 0,-1.6376 0.5625,-3.3251 1.25,-3.75 0.6875,-0.4249 1.25,-2.1124 1.25,-3.75 0,-1.6376 0.4909,-3.28088 1.0909,-3.65173 0.6001,-0.37083 1.1401,-3.12086 1.2001,-6.11117 0.06,-2.9903 0.6982,-6.98603 1.418,-8.8794 0.7199,-1.89337 0.9751,-3.98243 0.5673,-4.64235 -0.4079,-0.65993 -0.1885,-1.87835 0.4875,-2.7076 0.676,-0.82926 1.5323,-4.32025 1.9029,-7.75775 0.8171,-7.58059 1.4069,-10.47649 2.8003,-13.75 0.5852,-1.375 1.0852,-5.30593 1.111,-8.73538 l 0.047,-6.2353703 -6.875,-0.873436 c -5.7814,-0.73455 -54.0963,-2.657337 -61.8174,-2.460187 -1.3433,0.03425 -3.1714,-0.5427 -4.0625,-1.282213 -1.0417,-0.864612 -2.1778,-0.9198 -3.1826,-0.154625 -1.794,1.366288 -21.9277,1.261388 -32.3484,-0.16855 -9.7017,-1.331262 -11.6478,-0.03212 -13.3596,8.9187013 -1.878,9.82002 -2.8408,16.10386 -3.4295,22.38431 -0.2721,2.90286 -1.892,8.98996 -3.5997,13.5269 -1.7077,4.53692 -2.7849,9.08277 -2.3938,10.10189 0.391,1.0191 0.088,1.85291 -0.6727,1.85291 -0.7611,0 -1.3838,0.87461 -1.3838,1.94357 0,1.06898 -1.1843,4.5846 -2.6319,7.8125 -1.4476,3.22792 -3.4864,7.83768 -4.5308,10.24393 -6.0398,13.9155 -10.501,22.19931 -15.0248,27.89852 -1.5468,1.9488 -2.8125,4.36154 -2.8125,5.36162 0,1.00007 -0.8437,2.1421 -1.875,2.53782 -1.0312,0.39574 -1.875,2.06558 -1.875,3.71078 0,1.76303 -0.7353,2.99126 -1.7907,2.99126 -0.985,0 -2.1315,1.07345 -2.5479,2.38545 -0.4164,1.312 -2.4323,4.26512 -4.4798,6.5625 -2.0475,2.29737 -6.1041,7.2708 -9.0146,11.05205 -2.9106,3.78125 -6.1357,7.51627 -7.167,8.30006 -1.0312,0.78378 -3.8437,3.20109 -6.25,5.37178 -2.4062,2.1707 -6.7656,5.63457 -9.6875,7.6975 -2.9218,2.06291 -5.3125,4.28623 -5.3125,4.94071 0,0.65447 -0.8239,1.18995 -1.831,1.18995 -1.0071,0 -2.4331,1.125 -3.169,2.5 -0.7358,1.375 -2.0972,2.5 -3.0252,2.5 -0.928,0 -2.6086,1.40625 -3.7348,3.125 -1.1262,1.71875 -2.6364,3.125 -3.3561,3.125 -0.7196,0 -3.7611,1.6875 -6.7589,3.75 -2.9977,2.0625 -6.359,3.75 -7.4695,3.75 -1.1105,0 -3.4253,1.40625 -5.1441,3.125 -1.7187,1.71875 -3.8673,3.125 -4.7746,3.125 -0.9073,0 -3.1031,1.14327 -4.8795,2.54061 -3.3977,2.67261 -14.3927,6.48954 -15.9397,5.53345 -0.4981,-0.30784 -1.2301,0.28604 -1.6268,1.31971 -0.3967,1.03368 -1.1587,1.80759 -1.6935,1.71979 -0.5347,-0.0878 -1.2535,-0.05 -1.5973,0.084 -0.3437,0.13401 -1.4687,0.47045 -2.5,0.74764 -13.92263,3.74217 -23.8651,6.79876 -26.33408,8.09582 -5.99923,3.15164 -6.70738,3.24718 -10.40337,1.40338 -2.72729,-1.36055 -3.8786,-1.47114 -4.23345,-0.40661 -0.26812,0.80423 -2.12807,1.46221 -4.13327,1.46221 -2.00522,0 -3.64584,0.44042 -3.64584,0.97873 0,0.53829 -3.23438,0.93781 -7.1875,0.88781 -3.95313,-0.05 -8.1835,0.37932 -9.40084,0.95407 -1.21732,0.57475 -2.90482,0.61575 -3.749997,0.0911 -0.84516,-0.52464 -8.68144,-1.0632 -17.41394,-1.19682 -8.73251,-0.13362 -16.56728,-0.66938 -17.41062,-1.1906 -0.84334,-0.52121 -4.66731,-1.08236 -8.49772,-1.24698 -9.42578,-0.40512 -17.92867,-1.75375 -19.55299,-3.1013 -0.73624,-0.61079 -2.98624,-1.08484 -5,-1.05344 -4.83224,0.0754 -20.09544,-3.52029 -24.1801501,-5.69625 -1.77717,-0.94673 -6.88429004,-2.67886 -11.34912,-3.8492 -4.46485,-1.17033 -11.1533999,-3.74771 -14.8634599,-5.72751 -3.71007,-1.9798 -7.72252,-3.59964 -8.91655,-3.59964 -1.19405,0 -2.79913,-0.75686 -3.56685,-1.68191 -0.76773,-0.92505 -3.78973,-2.7477 -6.71557,-4.05031 -2.92582,-1.30263 -7.19701,-4.06139 -9.49153,-6.13059 -2.29451,-2.0692 -5.18529,-4.32469 -6.42395,-5.01219 -2.52361,-1.40069 -15.49711,-12.53269 -22.94428,-19.6875 -2.68347,-2.57813 -5.37536,-4.6875 -5.98198,-4.6875 -0.60661,0 -1.10294,-0.8614 -1.10294,-1.91423 0,-1.05283 -0.82249,-2.22986 -1.82776,-2.61561 -1.00526,-0.38576 -5.08211,-4.72747 -9.05968,-9.64827 -3.97756,-4.92079 -7.516023,-9.22814 -7.863263,-9.57189 -0.34722,-0.34375 -2.2975,-3.07966 -4.33393,-6.07981 -2.03644,-3.00015 -4.42548,-5.7322 -5.30899,-6.07124 -0.8835,-0.33903 -1.60638,-1.2984 -1.60638,-2.13192 0,-0.83354 -2.24999,-4.53119 -4.99999,-8.21703 -2.75,-3.68584 -5,-7.66474 -5,-8.84203 0,-1.17727 -0.84375,-2.46427 -1.875,-2.86001 -1.03125,-0.39572 -1.875,-1.737 -1.875,-2.9806 0,-1.2436 -0.87565,-3.51126 -1.94588,-5.03922 -1.07024,-1.52798 -1.61977,-2.77814 -1.22119,-2.77814 0.39859,0 -0.0724,-1.26563 -1.04642,-2.8125 -5.33824,-8.47698 -13.79566,-45.0843 -15.22486,-65.89963 -1.30569,-19.0163053 -1.42418,-20.0670433 -2.3695,-21.0125433 -1.42768,-1.427938 -112.44095,-1.421813 -113.34645,0.0062 -0.82576,1.3023 -0.17707,35.2328633 0.79518,41.5934233 1.80296,11.79512 3.02231,20.92765 3.75306,28.1091 0.45383,4.46 1.11601,8.57974 1.47152,9.15496 0.35551,0.57523 0.85252,2.55114 1.10447,4.3909 1.50408,10.98295 3.04621,19.30886 4.90278,26.47004 1.15855,4.46875 2.40099,9.67876 2.76099,11.5778 0.36,1.89904 1.15219,3.76036 1.76042,4.13627 0.60824,0.3759 1.10588,2.05653 1.10588,3.7347 0,1.67818 0.5625,3.05123 1.25,3.05123 0.6875,0 1.25,0.59336 1.25,1.31857 0,2.05791 4.84847,12.19023 6.24671,13.05439 0.68931,0.42603 1.25329,1.78031 1.25329,3.00955 0,1.22923 1.125,3.5321 2.5,5.11749 1.375,1.58539 2.5,3.38313 2.5,3.99498 0,1.18951 8.61449,14.97272 11.95624,19.13002 1.10527,1.375 2.51507,3.78004 3.13291,5.34454 0.61783,1.56449 1.97552,3.17153 3.01709,3.57122 1.04157,0.39969 1.89376,1.46713 1.89376,2.37206 0,0.90495 1.40625,3.3166 3.125,5.35922 1.71875,2.04262 3.125,4.33577 3.125,5.09591 0,0.76012 0.45703,1.38205 1.01563,1.38205 0.5586,0 3.79297,3.45262 7.1875,7.67251 3.39453,4.21988 8.98437,10.57538 12.42187,14.12332 3.4375,3.54795 10.46875,11.11475 15.625,16.81511 8.01852,8.86469 14.91607,15.15927 37.94103,34.62437 1.96132,1.65808 3.99447,3.01469 4.51812,3.01469 0.52363,0 2.85642,1.67888 5.18396,3.73084 2.32754,2.05196 6.03296,4.59677 8.23428,5.65512 2.20132,1.05836 5.57632,3.20142 7.5,4.76236 1.92368,1.56094 5.888233,3.8828 8.810103,5.15972 2.92188,1.27691 5.3125,3.07997 5.3125,4.0068 0,0.92684 0.80585,1.68516 1.79076,1.68516 0.98493,0 2.14783,1.125 2.58424,2.5 0.57249,1.80376 1.90139,2.50533 4.77174,2.51914 2.54761,0.0125 3.39867,0.38686 2.36658,1.04167 -1.05717,0.67072 -0.41097,1.02253 1.87817,1.02253 4.63743,0 20.06455,5.04174 24.05728,7.86216 1.74693,1.23401 5.14498,2.64296 7.55123,3.13099 9.07806,1.84121 13.75,3.6238 13.75,5.24637 0,0.92243 0.84375,1.67714 1.875,1.67714 1.03125,0 1.875,-0.86059 1.875,-1.91243 0,-1.5669 0.62106,-1.45534 3.4375,0.61738 1.93582,1.42464 8.07905,3.3926 14.0624899,4.50485 5.84375,1.0863 11.60174,2.49597 12.79554,3.13264 3.19973,1.70644 5.9561182,3.97385 9.6330031,1.67202 10.466897,2.63694 2.040097,2.16973 10.466897,2.63694 z"
       transform="translate(322.41195,416.1591)"
       id="path985"
       inkscape:connector-curvature="0" />
    <path
       style="fill:none;stroke:#180808;stroke-width:1.25;stroke-opacity:1"
       d="m -119.18125,-122.93459 c 2.28145,-4.7829 3.80092,-7.27472 9.01688,-14.78701 2.2674,-3.26562 3.68913,-5.9375 3.15937,-5.9375 -0.52975,0 0.28698,-0.87565 1.81495,-1.94587 1.52797,-1.07024 2.77813,-2.72979 2.77813,-3.68789 0,-0.95811 0.7333,-2.19184 1.62954,-2.74163 0.896253,-0.54978 3.522863,-3.67148 5.836903,-6.93711 2.31405,-3.26562 4.58664,-5.9375 5.0502,-5.9375 0.46355,0 3.54981,-3.375 6.85836,-7.5 3.30855,-4.125 6.77141,-7.5 7.69526,-7.5 0.92386,0 1.67974,-0.57642 1.67974,-1.28094 0,-0.70451 1.3955,-1.81151 3.10112,-2.45998 2.06127,-0.78369 2.85472,-1.82119 2.36627,-3.09407 -0.41962,-1.09348 -0.0615,-1.91501 0.83483,-1.91501 0.86334,0 4.64439,-2.53125 8.40234,-5.625 3.75795,-3.09375 7.52459,-5.625 8.3703,-5.625 0.84573,0 2.55578,-1.125 3.80014,-2.5 1.24436,-1.375 3.1945,-2.5 4.33366,-2.5 1.13915,0 3.34017,-1.71639 4.89115,-3.81419 1.55097,-2.09781 3.76612,-3.67434 4.92257,-3.50341 1.15644,0.17094 5.19637,-1.68386 8.97762,-4.12179 8.49305,-5.4758 21.7497699,-11.76151 27.2426099,-12.91715 2.26468,-0.47647 5.10718,-1.9285 6.31667,-3.22672 2.1839401,-2.34419 19.4949501,-8.66674 23.7293401,-8.66674 1.21625,0 2.74575,-0.48696 3.39887,-1.08214 0.65313,-0.59517 5.6875,-1.74676 11.1875,-2.55907 5.5,-0.81231 11.125,-1.97374 12.5,-2.58094 3.79362,-1.67526 29.45675,-3.89594 45.624997,-3.94801 21.8529,-0.0704 36.81898,1.08685 43.41481,3.357 3.2781,1.12826 7.08519,2.21705 8.46019,2.41952 5.34036,0.78644 17.42876,4.44736 18.62056,5.63919 0.6899,0.68995 1.9918,1.25445 2.8931,1.25445 1.7598,0 10.6424,3.75437 18.0315,7.62135 2.4999,1.30826 5.3177,2.37865 6.2618,2.37865 0.9442,0 2.4192,1.125 3.2779,2.5 0.8587,1.375 2.3832,2.5 3.3877,2.5 3.0575,0 19.5209,9.92442 23.299,14.0451 1.1119,1.2127 2.618,2.2049 3.3468,2.2049 0.7288,0 2.4313,1.40625 3.7833,3.125 1.352,1.71875 2.9397,3.14371 3.5282,3.16659 2.0046,0.0779 6.6951,4.72776 6.6951,6.63703 0,1.0466 1.1987,2.28335 2.6637,2.74833 2.6999,0.85693 17.2304,15.41338 20.9392,20.97659 5.8278,8.74172 7.0401,10.42447 9.1655,12.72146 3.5461,3.83243 14.1425,22.26669 17.4255,30.31465 1.6121,3.95194 3.3512,7.37224 3.8646,7.60066 0.5134,0.22843 2.9635,6.97843 5.4446,15 2.4812,8.02158 5.533,16.834692 6.7819,19.584692 1.2489,2.75 2.9119,9.21875 3.6955,14.375 2.2685,14.925862 4.7584,43.302312 4.1013,46.739862 -0.4831,2.526963 -0.022,3.272725 2.346,3.795525 1.621,0.357838 27.0489,0.9073 56.5065,1.221025 29.4575,0.313713 53.8794,0.890613 54.2708,1.281988 1.2201,1.2201 4.728,0.781562 6.8064,-0.8509 1.7898,-1.4058 1.8123,-2.565175 0.2241,-11.56005 -0.9708,-5.49865 -1.4676,-10.773075 -1.1038,-11.720938 0.3637,-0.947862 0.142,-2.355212 -0.4927,-3.127449 -0.6348,-0.772238 -1.7632,-7.310313 -2.5076,-14.529063 -1.4202,-13.772425 -2.1245,-18.58595 -3.4746,-23.75 -0.4494,-1.71875 -0.7341,-3.519012 -0.6326,-4.000575 0.3674,-1.744787 -3.8903,-19.162667 -5.0408,-20.621247 -0.6493,-0.82325 -1.3326,-3.3545 -1.5183,-5.625 -0.1857,-2.2705 -3.0193,-12.28443 -6.297,-22.25318 -5.9849,-18.20287 -7.0572,-21.20201 -10.0556,-28.125 -0.8933,-2.0625 -2.5399,-6.72447 -3.6593,-10.35994 -1.1193,-3.63546 -3.6976,-9.68265 -5.7294,-13.4382 -2.0318,-3.75555 -3.5603,-8.09176 -3.3966,-9.63602 0.2197,-2.07247 -0.4389,-2.91342 -2.5148,-3.21124 -2.1904,-0.31423 -2.8125,-1.2197 -2.8125,-4.09334 0,-2.72282 -0.819,-4.06302 -3.125,-5.1137 -1.7188,-0.78312 -3.125,-2.09124 -3.125,-2.90695 0,-0.8157 -1.125,-2.78022 -2.5,-4.36561 -1.375,-1.58539 -2.5,-3.92146 -2.5,-5.19126 0,-1.2698 -0.7032,-2.3157 -1.5625,-2.32422 -0.8594,-0.009 -2.8333,-1.97726 -4.3865,-4.375 -1.5532,-2.39773 -3.3813,-4.35952 -4.0625,-4.35952 -0.6812,0 -1.2385,-1.10816 -1.2385,-2.46257 0,-1.35443 -1.6875,-3.7102 -3.75,-5.23508 -2.0625,-1.52487 -3.75,-3.27829 -3.75,-3.89649 0,-1.0876 -11.4034,-13.59856 -17.2434,-18.91811 -1.5776,-1.43701 -5.7963,-5.361 -9.375,-8.71997 -3.5786,-3.35898 -8.4754,-7.4534 -10.8816,-9.09873 -9.3931,-6.42274 -12.9785,-9.29596 -14.7421,-11.8138 -1.0091,-1.44063 -3.7912,-3.43684 -6.1826,-4.43602 -2.3914,-0.99918 -4.6311,-2.89953 -4.9772,-4.22302 -0.3766,-1.44008 -2.389,-2.8922 -5.0115,-3.61633 -2.4103,-0.6655 -5.4408,-2.16791 -6.7345,-3.33868 -1.2937,-1.17077 -2.3521,-1.63508 -2.3521,-1.0318 0,0.60328 -0.8757,-0.15329 -1.9459,-1.68127 -1.0702,-1.52797 -2.7146,-2.77813 -3.6541,-2.77813 -0.9395,0 -3.4142,-1.43552 -5.4994,-3.19006 -2.0851,-1.75453 -4.1029,-3.14938 -4.484,-3.09967 -1.3968,0.18222 -8.8738,-4.07791 -11.7048,-6.66899 -1.6023,-1.46645 -3.1492,-2.52565 -3.4375,-2.35378 -1.6668,0.99347 -4.2743,0.0403 -4.2743,-1.5625 0,-1.03125 -0.5625,-1.875 -1.25,-1.875 -0.6875,0 -1.25,0.5943 -1.25,1.32067 0,1.34727 -5.6973,-1.41425 -11.1061,-5.38317 -1.6396,-1.20312 -4.0634,-2.1875 -5.3863,-2.1875 -1.3469,0 -2.0516,-0.57202 -1.6017,-1.3001 0.5177,-0.83764 -0.3058,-1.02167 -2.3151,-0.51736 -1.8931,0.47512 -6.0921,-0.30143 -10.6847,-1.97595 -5.96789,-2.3659 -5.08217,-2.3187 -8.80862,-3.06399 l -3.58958,-1.1072 c 0,0 -1.4885,-0.10605 -3.6253,-1.42423 -1.1446,-0.70613 -11.3324,-2.12344 -15.3826,-2.48596 -1.7187,-0.15385 -5.4554,-0.92541 -8.3036,-1.7146 -2.8483,-0.78918 -6.0826,-1.08799 -7.1875,-0.66401 -1.1653,0.44716 -2.0089,0.13365 -2.0089,-0.7466 0,-0.83461 -0.7752,-1.22 -1.7226,-0.85642 -0.9475,0.36358 -2.2241,0.15973 -2.8368,-0.453 -1.8383,-1.83827 -19.50254,-2.89049 -47.31556,-2.81847 -30.074097,0.0779 -34.722857,0.31727 -35.717097,1.83938 -0.91866,1.40639 -13.04393,3.30308 -18.3454,2.86967 -2.23438,-0.18267 -4.0625,0.0337 -4.0625,0.48086 0,0.44714 -1.82813,0.91004 -4.0625,1.02867 -8.0502,0.42741 -12.04674,1.27955 -14.96311,3.19043 -1.63219,1.06945 -6.78476,2.53874 -11.45018,3.26507 -4.66541,0.72634 -9.13881,1.83475 -9.94088,2.46313 -0.80208,0.62838 -3.57305,1.20392 -6.15771,1.27898 -2.58467,0.0751 -5.6784201,0.63988 -6.8750001,1.25517 -1.19659,0.61529 -2.89765,0.86029 -3.78014,0.54445 -0.88249,-0.31585 -2.28874,-0.0216 -3.12500004,0.65394 -0.83626,0.67552 -4.47297996,1.62514 -8.08157996,2.11028 -3.6086099,0.48514 -6.8761799,1.39187 -7.2612699,2.01496 -0.38509,0.6231 -1.80962,1.1329 -3.16562,1.1329 -1.356,0 -2.78924,0.84375 -3.18497,1.875 -0.39573,1.03125 -1.7959,1.875 -3.11147,1.875 -1.98066,0 -17.86473,7.20035 -24.84056,11.26039 -1.03125,0.6002 -5.35811,2.78708 -9.61525,4.85973 -8.97361,4.36893 -12.76841,6.44564 -15.38475,8.41931 -1.03125,0.77794 -5.39363,3.22713 -9.69416,5.44265 -4.30054,2.21551 -8.13723,4.54284 -8.52596,5.17183 -0.38874,0.629 -3.47949,2.54866 -6.86834,4.26592 -3.388853,1.71726 -6.161543,3.67531 -6.161543,4.35123 0,0.67592 -0.7457,1.22894 -1.65711,1.22894 -0.9114,0 -3.02077,1.47875 -4.6875,3.2861 -1.66671,1.80735 -4.85851,4.0649 -7.09288,5.01678 -2.23438,0.95187 -4.0625,2.27117 -4.0625,2.93179 0,0.66062 -1.54688,2.0202 -3.4375,3.0213 -1.89063,1.0011 -6.20682,4.39056 -9.59154,7.5321 -3.38471,3.14157 -6.585,5.71193 -7.11174,5.71193 -1.56285,0 -20.79382,19.70534 -23.19041,23.76242 -1.2143,2.05567 -2.78967,3.74772 -3.50082,3.76012 -1.5859,0.0276 -9.41799,9.29457 -9.41799,11.14338 0,0.73374 -0.49491,1.33408 -1.09981,1.33408 -0.6049,0 -3.42087,3.07419 -6.25768,6.83152 -2.83682,3.75734 -6.48781,8.11672 -8.11331,9.6875 -1.62551,1.57079 -4.76164,6.2085 -6.96917,10.30604 -2.20754,4.09753 -5.23351,9.15768 -6.72437,11.24477 -3.88089,5.43292 -7.08566,11.63143 -7.08566,13.70473 0,0.98099 -1.27337,3.37367 -2.82971,5.31703 -4.20791,5.25435 -7.88605,12.51984 -11.62199,22.9571 -1.83606,5.12947 -3.95307,10.08805 -4.70446,11.01907 -1.28106,1.58732 -6.52624,15.59794 -7.6929,20.5488 -1.06952,4.53868 -3.73745,11.577192 -5.29683,13.97408 -0.88226,1.356087 -1.60411,3.713525 -1.60411,5.238725 0,1.5252 -0.5625,3.120737 -1.25,3.545637 -0.6875,0.4249 -1.25,3.1581 -1.25,6.073775 0,2.915675 -0.4563,5.8356 -1.01399,6.488725 -2.43393,2.850388 -8.22606,35.572437 -6.58684,37.211663 1.51694,1.516949 33.95433,3.314212 58.85083,3.260762 11.34375,-0.02437 27.13922,0.298863 35.10106,0.71825 11.14833,0.587238 14.77438,0.387175 15.7738,-0.870325 0.71376,-0.898063 1.92752,-5.8516 2.69725,-11.00785 1.77181,-11.869025 2.4811,-15.660837 4.09186,-21.875 3.01408,-11.6279 9.66895,-31.86305 11.09961,-33.75 0.52125,-0.6875 1.33863,-3.078122 1.81639,-5.312502 l 7.51839,-11.84382 c 1.44115,-1.29005 1.62237,-5.62694 2.6323,-7.74417 z"
       transform="translate(322.41195,416.1591)"
       id="path1679"
       inkscape:connector-curvature="0" />
  </g>
  <g
     inkscape:groupmode="layer"
     id="layer3"
     inkscape:label="Slice 3"
     style="display:inline">
    <path
       transform="translate(322.41195,416.1591)"
       id="path951"
       style="fill:none;stroke:#f50f0f;stroke-width:1.25;stroke-opacity:1"
       d="m 365.25703,104.38601 c -2.3134,-0.9873 -5.2841,-1.79509 -6.6018,-1.79509 -3.0329,0 -4.271,-3.10933 -2.6468,-6.64683 1.9584,-4.26515 6.3055,-14.98213 7.1197,-17.55231 0.5992,-1.89154 1.5247,-2.17622 4.9722,-1.52946 5.0572,0.94874 11.9877,4.24433 11.9877,5.70041 0,3.01868 -6.474,19.55135 -8.3919,21.43045 -2.0151,1.97434 -2.6437,2.01268 -6.4391,0.39283 z m -595.90568,32.57991 c -0.43138,-1.71875 -1.19449,-3.125 -1.69579,-3.125 -0.5013,0 -1.96454,-3.23438 -3.25163,-7.1875 -1.28709,-3.95313 -2.75975,-7.77757 -3.27259,-8.49879 -1.42366,-2.0021 4.60376,-13.8942 9.22611,-18.20311 2.25807,-2.10496 8.82518,-6.09271 14.59356,-8.86169 12.61693,-6.05645 17.89707,-6.03137 27.02394,0.12828 3.60873,2.4355 6.74069,3.6834 8.13438,3.24105 2.51303,-0.7976 11.22871,-10.24112 11.22871,-12.1664 0,-2.06733 17.93745,-23.51127 19.32314,-23.1005 0.71602,0.21225 2.66011,3.10088 4.32018,6.41919 2.44608,4.8894 2.74231,6.47522 1.5625,8.36441 -0.8007,1.28212 -1.45582,3.20017 -1.45582,4.26234 0,1.06214 -0.79299,2.23548 -1.76219,2.6074 -0.96921,0.37192 -2.08805,1.97454 -2.48632,3.56141 -0.39828,1.58685 -1.8553,3.18098 -3.23782,3.54252 -1.52341,0.39838 -2.51367,1.70378 -2.51367,3.3136 0,1.46094 -0.84375,2.98003 -1.875,3.37575 -1.03125,0.39574 -1.875,1.25481 -1.875,1.90908 0,1.61065 -7.40595,11.00332 -11.14663,14.13681 -5.14131,4.30677 -15.07404,9.40615 -18.32163,9.40615 -2.04748,0 -3.46726,-0.95109 -4.19855,-2.8125 -0.60773,-1.54688 -2.2813,-3.79138 -3.71906,-4.98776 -1.43778,-1.1964 -2.61413,-3.03845 -2.61413,-4.09344 0,-2.69687 -5.77395,-4.69904 -8.83184,-3.0625 -1.32999,0.71179 -2.41816,1.82242 -2.41816,2.46808 0,0.64566 -1.62071,2.01202 -3.60157,3.03637 -4.23882,2.19197 -5.9635,8.8273 -3.13213,12.05018 0.95354,1.08538 1.7337,3.14788 1.7337,4.58333 0,1.43545 0.70313,2.93803 1.5625,3.33908 1.20614,0.56286 1.17051,0.90733 -0.15625,1.51041 -0.94531,0.42969 -2.64052,1.69531 -3.76714,2.8125 -2.39163,2.37161 -8.2237,5.15625 -10.79911,5.15625 -0.9858,0 -2.14531,-1.40625 -2.57669,-3.125 z m 11.4811,22.8125 c -0.99728,-1.54688 -2.5369,-4.42548 -3.42139,-6.39688 -1.4884,-3.31747 -1.35034,-3.80615 1.85412,-6.5625 1.90425,-1.63797 4.5559,-2.97812 5.89257,-2.97812 1.33666,0 2.43029,-0.47875 2.43029,-1.06389 0,-0.58512 3.79688,-2.84121 8.4375,-5.01351 4.64063,-2.17231 11.53125,-5.79228 15.3125,-8.04437 3.78125,-2.25209 8.84375,-4.84164 11.25,-5.75453 2.40625,-0.9129 6.625,-2.66914 9.375,-3.90276 2.75,-1.23363 8.09375,-3.47223 11.875,-4.97468 3.78125,-1.50245 8.28125,-3.50518 10,-4.45053 1.71875,-0.94535 4.53125,-2.36867 6.25,-3.16292 1.71875,-0.79425 4.45346,-2.06523 6.07715,-2.82441 2.5885,-1.2103 3.31912,-0.92166 5.93128,2.34314 1.63853,2.0479 2.98194,4.37971 2.98535,5.1818 0.004,0.80207 0.66992,1.67956 1.4811,1.94996 3.32195,1.10731 -0.52028,4.73274 -7.01755,6.62154 -3.80112,1.10502 -7.23597,2.53474 -7.633,3.17715 -0.39703,0.6424 -2.03475,1.16801 -3.63937,1.16801 -1.60463,0 -3.24126,0.84375 -3.637,1.875 -0.39573,1.03125 -1.52775,1.875 -2.5156,1.875 -2.32105,0 -11.94906,4.98823 -15.0793,7.8125 -1.33345,1.20313 -3.37452,2.1875 -4.53571,2.1875 -1.16118,0 -2.76033,0.7821 -3.55365,1.738 -0.79333,0.9559 -4.20515,2.9265 -7.58183,4.3791 -3.37667,1.45261 -6.49157,3.21094 -6.92201,3.90739 -0.43043,0.69646 -1.35276,0.91392 -2.04961,0.48324 -0.69685,-0.43068 -3.70306,0.9664 -6.68047,3.10461 -2.97742,2.13821 -6.55816,3.88766 -7.95722,3.88766 -1.39907,0 -4.0772,1.42115 -5.95142,3.15811 -2.29009,2.12239 -3.69478,2.69355 -4.28315,1.74155 -0.63615,-1.02931 -1.10923,-1.03836 -1.73051,-0.0331 -1.31791,2.13241 -2.9745,1.65542 -4.96307,-1.42905 z m 571.13058,7.17496 c -2.0625,-0.9502 -8.5313,-3.76969 -14.375,-6.2655 -16.3827,-6.9969 -18.6158,-8.33737 -23.2213,-13.9388 -3.9945,-4.85829 -4.6899,-5.20194 -10.117,-5 -3.7168,0.13829 -6.0164,-0.34912 -6.3489,-1.34566 -0.2866,-0.85938 -1.318,-1.5625 -2.292,-1.5625 -2.3349,0 -2.2338,-1.48721 0.4167,-6.1257 2.13,-3.72771 2.1085,-3.97761 -0.8174,-9.51151 -3.3104,-6.26095 -2.9955,-7.77169 3.0718,-14.73987 3.6837,-4.23072 4.1167,-4.01835 13.5112,6.62708 3.9437,4.46875 9.2668,10.375 11.8291,13.125 2.5623,2.75 10.3214,11.75 17.2424,20 6.921,8.25 13.5156,15.772 14.6545,16.71555 2.1359,1.76947 2.7873,3.97055 1.1334,3.82951 -0.5157,-0.044 -2.625,-0.85739 -4.6875,-1.8076 z m -1.6705,25.58859 c -5.7312,-2.72308 -10.6789,-4.95105 -10.9948,-4.95105 -0.3159,0 -5.7517,-2.46015 -12.0795,-5.46701 -6.3279,-3.00687 -13.474,-6.20579 -15.8802,-7.10873 -2.4063,-0.90295 -5.7561,-2.52061 -7.444,-3.59482 -1.688,-1.0742 -4.7817,-2.59624 -6.875,-3.38229 -9.656,-3.62591 -24.1412,-10.61755 -27.3689,-13.21024 l -3.5628,-2.86191 4.2051,-6.25 c 3.4007,-5.05448 4.7996,-6.17999 7.3128,-5.88396 3.6933,0.435 5.6146,1.18605 22.4828,8.78866 4.4687,2.01411 9.5312,4.09 11.25,4.61311 1.7187,0.5231 4.4665,1.99871 6.106,3.27914 1.6396,1.28042 3.8896,2.32934 5,2.3309 1.1105,0.001 7.0815,2.85559 13.269,6.34225 6.1875,3.48666 16.2322,8.94039 22.3216,12.1194 6.0894,3.179 11.3323,6.45953 11.651,7.29004 0.3187,0.83051 -0.4447,2.73525 -1.6966,4.23276 -1.2518,1.49751 -3.401,4.0597 -4.776,5.69376 l -2.5,2.97103 z m -530.97424,15.9109 c -5.21667,-5.39851 -6.72625,-14.52451 -3.9438,-23.84192 1.68819,-5.65313 12.82147,-17.83074 24.71355,-27.03176 3.78125,-2.92558 6.95584,-6.22916 7.05462,-7.34126 0.0987,-1.11211 0.23943,-2.73585 0.3125,-3.60832 0.0855,-1.02079 1.16862,-1.32637 3.03813,-0.85715 1.84408,0.46283 3.498,0.015 4.52806,-1.22618 0.89254,-1.07545 2.41532,-1.95536 3.38397,-1.95536 0.96865,0 2.06818,-0.80004 2.44342,-1.77788 1.08023,-2.81507 10.3624,-5.9007 17.75045,-5.9007 7.97043,0 18.93315,4.05078 21.32414,7.87935 1.459633,2.33724 1.283743,2.9765 -1.53912,5.59402 -1.75289,1.62536 -3.55254,2.95521 -3.99923,2.95521 -0.44667,0 -1.92252,1.41161 -3.27963,3.13691 -1.37665,1.75013 -3.0938,2.74983 -3.8842,2.26134 -3.05949,-1.89088 -12.54395,-2.53685 -15.41063,-1.0496 -4.7588,2.4689 -27.85004,22.39607 -27.91371,24.08885 -0.0324,0.85937 -1.19203,1.5625 -2.57715,1.5625 -5.39436,0 -8.57142,9.61862 -5.7803,17.5 0.43124,1.21769 -1.69695,3.73737 -6.07072,7.1875 -3.70411,2.92187 -6.90819,5.2785 -7.12018,5.23695 -0.21198,-0.0415 -1.57556,-1.30719 -3.03017,-2.8125 z m 22.33225,19.4392 c -1.54688,-0.26126 -2.8125,-0.96611 -2.8125,-1.56631 0,-0.60022 -1.06228,-0.88672 -2.36061,-0.63668 -1.37235,0.26429 -3.71335,-0.95735 -5.59182,-2.91804 l -3.2312,-3.37263 2.77932,-3.15012 c 6.31792,-7.16083 12.48993,-9.43501 18.60097,-6.85382 3.2145,1.35773 9.41384,-2.54139 26.47446,-16.65129 17.42781,-14.41357 20.67497,-19.13492 18.14726,-26.38593 -1.61422,-4.63056 0.13294,-7.11507 8.840793,-12.57186 l 5.53416,-3.468 2.27834,2.89643 c 1.25307,1.59304 2.27832,4.04012 2.27832,5.43799 0,1.39786 0.48394,2.84066 1.07541,3.20621 2.19895,1.35902 2.77374,12.2704 0.80469,15.27555 -1.03406,1.57816 -1.8801,3.60856 -1.8801,4.51199 0,1.55715 -14.909393,17.19536 -16.393973,17.19536 -0.38594,0 -4.56131,3.65625 -9.27861,8.125 -4.71729,4.46875 -9.24808,8.125 -10.06841,8.125 -0.82034,0 -1.81855,0.85219 -2.21824,1.89376 -0.39969,1.04157 -2.14736,2.43389 -3.88373,3.09407 -1.73637,0.66016 -3.15703,2.05797 -3.15703,3.10623 0,1.19966 -1.15802,1.90594 -3.125,1.90594 -1.71875,0 -3.125,0.55845 -3.125,1.241 0,0.68255 -2.10938,1.20582 -4.6875,1.16282 -2.57813,-0.043 -6.375,0.13569 -8.4375,0.39708 -2.0625,0.2614 -5.01563,0.26151 -6.5625,2.5e-4 z m 439.68749,-16.23459 c 0,-0.86786 -4.0997,-3.97537 -5.3125,-4.02681 -1.4289,-0.0606 -1.1174,3.03039 0.4648,4.61258 1.3127,1.31273 4.8477,0.88561 4.8477,-0.58577 z m 4.5052,1.27198 c -1.2707,-1.27064 -2.3191,0.64236 -1.2765,2.32922 0.7875,1.27428 1.0819,1.27527 1.5053,0.005 0.2895,-0.86848 0.1865,-1.91891 -0.2288,-2.33427 z m 20.4871,34.65672 c -0.9614,-0.59417 -2.2089,-0.79542 -2.7723,-0.44725 -0.5633,0.34818 -3.833,-1.09519 -7.2659,-3.20747 -3.4329,-2.1123 -6.8495,-3.84054 -7.5924,-3.84054 -0.743,0 -2.8439,-1.01479 -4.6688,-2.25509 -1.8248,-1.2403 -5.8492,-3.26582 -8.9429,-4.50117 -6.567,-2.62224 -12.3532,-5.26554 -15,-6.8525 -1.0313,-0.6183 -3.2813,-1.75275 -5,-2.52099 -1.7188,-0.76824 -4.8125,-2.4738 -6.875,-3.79014 -2.0625,-1.31632 -5.7188,-3.08152 -8.125,-3.92265 -2.4063,-0.84112 -6.3337,-2.8519 -8.7277,-4.46839 -2.394,-1.61648 -5.3275,-2.93907 -6.519,-2.93907 -2.4065,0 -10.4239,-6.58173 -12.3097,-10.10542 -1.0025,-1.87315 -0.2563,-2.91934 4.3354,-6.07858 3.0506,-2.0988 6.2888,-3.82306 7.1962,-3.83169 0.9074,-0.009 7.2748,2.73393 14.1498,6.09455 32.3223,15.79979 35.6482,17.07096 35.6058,13.60864 -0.028,-2.29908 -1.4999,-4.12579 -4.6683,-5.79435 -1.5469,-0.81461 -2.8125,-2.05115 -2.8125,-2.74788 0,-1.2707 -5.4184,-9.73067 -14.2169,-22.19756 -4.7994,-6.80046 -5.0822,-9.5918 -1.124,-11.09711 1.2187,-0.46349 3.2652,-2.16884 4.5476,-3.78969 3.9543,-4.9976 6.8329,-3.20814 16.5918,10.31409 4.9617,6.875 9.0618,13.15625 9.1113,13.95834 0.05,0.80207 0.5162,1.64582 1.037,1.875 1.5103,0.66465 9.2172,10.80903 14.9811,19.71915 l 5.3029,8.19751 -4.3654,0.38796 c -2.786,0.24759 -4.3654,1.03903 -4.3654,2.1875 0,0.98974 0.8437,1.79954 1.875,1.79954 1.0312,0 1.8785,0.42187 1.8829,0.9375 0.01,1.19357 6.9742,5.44966 11.8671,7.25251 2.0625,0.75995 4.4838,2.88434 5.3807,4.72087 0.8969,1.83651 2.1625,3.33912 2.8125,3.33912 2.1636,0 1.2211,2.36159 -2.2557,5.65213 -4.7865,4.53001 -7.0298,5.60417 -9.0702,4.34313 z m -36.8673,27.51548 c -1.375,-0.53784 -3.9063,-3.30853 -5.625,-6.1571 -1.7188,-2.84858 -4.3907,-6.59745 -5.9375,-8.33084 -1.5469,-1.73337 -2.8125,-3.68512 -2.8125,-4.3372 0,-0.65207 -0.8893,-2.16997 -1.9761,-3.3731 -6.5685,-7.27136 -23.0119,-30.04256 -23.0174,-31.875 -0.01,-2.31965 4.2787,-3.10525 5.5672,-1.02051 0.3966,0.64185 4.5032,3.03247 9.1256,5.3125 4.6224,2.28004 9.1525,4.84864 10.0668,5.70801 0.9143,0.85938 2.2317,1.5625 2.9274,1.5625 2.1875,0 9.2602,8.11586 13.4415,15.42401 2.21,3.86274 4.5809,7.37094 5.2687,7.796 0.6878,0.42507 1.7769,1.98383 2.4204,3.46392 0.6434,1.48008 1.8338,3.61562 2.6451,4.74562 1.1625,1.61896 1.0827,2.41399 -0.3766,3.75 -8.5382,7.81734 -9.2832,8.28344 -11.7176,7.33119 z m -378.07327,0.0341 c -1.61384,-1.39967 -2.54503,-2.54486 -2.06929,-2.54486 0.47573,0 -0.28196,-1.23106 -1.68374,-2.7357 -1.40178,-1.50464 -2.54869,-3.72144 -2.54869,-4.92623 0,-1.2048 -0.6316,-2.58088 -1.40357,-3.05797 -1.88773,-1.1667 -0.70743,-17.64638 1.56119,-21.79769 0.94455,-1.72843 2.89146,-4.82218 4.32646,-6.875 1.43501,-2.05282 2.98808,-4.57616 3.45128,-5.60741 0.46318,-1.03125 1.955,-3.5625 3.31512,-5.625 1.36012,-2.0625 3.13172,-5.01563 3.936873,-6.5625 0.80517,-1.54688 1.86789,-2.8125 2.36163,-2.8125 0.49375,0 1.5967,-1.6875 2.45101,-3.75 0.85431,-2.0625 2.05961,-3.75 2.67845,-3.75 0.61883,0 1.71114,-1.26563 2.42734,-2.8125 2.47965,-5.3556 14.38962,-11.84314 26.14421,-14.24113 3.76142,-0.76734 16.25,2.35824 16.25,4.06699 0,0.92845 -2.01036,4.8308 -4.46748,8.67188 -3.72576,5.82431 -5.02281,6.94776 -7.8125,6.76681 -1.83976,-0.11938 -4.22815,-0.15735 -5.30752,-0.0845 -3.03595,0.2049 -12.4125,8.79824 -12.4125,11.37569 0,1.26413 -0.50315,2.48592 -1.11811,2.7151 -0.61498,0.22916 -2.16185,2.18973 -3.4375,4.35683 -1.27566,2.1671 -5.4815,8.37405 -9.34631,13.79322 -6.49447,9.1064 -6.98477,10.27468 -6.47048,15.41762 0.30605,3.06054 1.02768,6.13485 1.60361,6.8318 1.2454,1.5071 0.17893,8.14219 -1.30872,8.14219 -0.56984,0 -1.77418,1.54 -2.676303,3.42221 -2.08156,4.34304 -4.72267,4.85054 -8.44446,1.62265 z m 19.635773,10.15755 c -3.95312,-1.08121 -7.1875,-2.47487 -7.1875,-3.09701 0,-0.62214 1.76789,-3.85948 3.92864,-7.19408 3.72431,-5.74758 4.20799,-6.0573 9.30019,-5.95508 6.72319,0.13495 11.14427,-3.20354 16.82652,-12.70624 2.26104,-3.78125 7.31682,-11.375 11.23506,-16.875 9.64754,-13.54215 10.53786,-16.49166 6.83173,-22.63248 -2.87403,-4.76207 -2.87793,-4.82456 -0.50919,-8.15115 1.31287,-1.84376 2.38705,-3.96858 2.38705,-4.72183 0,-0.75325 0.49224,-1.36954 1.09387,-1.36954 0.60163,0 1.91628,-1.69809 2.92144,-3.77351 l 1.82756,-3.77351 6.45356,6.82368 c 4.89513,5.17587 6.496,7.82279 6.62932,10.96102 0.60087,14.14547 0.53792,19.35246 -0.254,21.01232 -0.49203,1.03125 -1.94133,4.125 -3.22067,6.875 -1.27935,2.75 -2.64197,5.28125 -3.02805,5.625 -0.38608,0.34375 -4.27642,5.87482 -8.64518,12.29128 -4.36878,6.41644 -10.958,14.80392 -14.64273,18.63882 -5.83602,6.07389 -7.27825,6.9508 -11.18992,6.80374 -2.46974,-0.0929 -5.67416,0.66031 -7.12095,1.67367 -3.0991,2.1707 -4.16666,2.13508 -13.63675,-0.4551 z m 172.79608,2.28745 c -0.58894,-0.36399 -1.46114,-3.60436 -1.93823,-7.20082 -0.67882,-5.11718 -0.49267,-6.56642 0.8561,-6.66495 0.94795,-0.0693 4.39541,-0.35712 7.66104,-0.63969 3.74516,-0.32406 5.9375,-0.0139 5.9375,0.8402 0,0.74469 0.88392,0.47004 1.96429,-0.61031 2.090977,-2.09099 5.272677,-2.51603 7.542907,-1.00765 1.8195,1.20892 3.27502,9.35863 2.33812,13.09156 -0.7101,2.82929 -1.19352,2.94599 -12.015397,2.90067 -6.20155,-0.026 -11.7574,-0.34503 -12.34633,-0.70901 z m 135.098617,2.29383 c -2.2145,-5.72478 -4.5452,-11.38543 -5.1793,-12.57923 -0.6341,-1.1938 -1.1529,-2.77609 -1.1529,-3.51619 0,-0.74011 -1.3571,-4.26336 -3.0158,-7.82946 -4.2849,-9.2122 -9.4842,-23.05291 -9.4842,-25.24696 0,-1.02401 -0.5625,-1.86185 -1.25,-1.86185 -0.6875,0 -1.2484,-0.70313 -1.2464,-1.5625 0,-1.41198 -3.8211,-11.44079 -8.2946,-21.75141 -3.1843,-7.33912 -1.671,-10.7447 5.384,-12.11673 1.2551,-0.24407 3.2394,-0.85939 4.4096,-1.36733 3.6335,-1.57722 3.9099,-1.21279 10.532,13.88567 0.9559,2.1795 2.0819,5.6825 2.5023,7.78447 0.4204,2.10197 1.5403,4.46575 2.4887,5.25285 0.9484,0.7871 1.7435,2.62784 1.7668,4.09053 0.023,1.4627 1.1292,4.90945 2.4576,7.65945 1.3283,2.75 2.4342,5.71076 2.4576,6.57946 0.023,0.8687 0.5776,2.5562 1.2318,3.75 2.557,4.66613 7.9062,18.62564 7.5833,19.78966 -0.13,0.46825 0.2626,1.1955 0.8722,1.61613 1.8286,1.2616 5.3509,11.80145 5.6762,16.98501 0.3008,4.79213 0.2402,4.86108 -5.9461,6.76875 -3.4375,1.06002 -6.5912,2.41129 -7.0082,3.00284 -0.4171,0.59155 -2.5701,-3.60837 -4.7846,-9.33316 z m -34.8277,16.57297 c -2.5462,-1.00081 -4.817,-2.27799 -5.0462,-2.83816 -0.2292,-0.56018 -1.1633,-1.0185 -2.076,-1.0185 -0.9126,0 -2.9363,-2.67188 -4.4971,-5.9375 -1.5608,-3.26563 -3.2279,-6.21875 -3.7046,-6.5625 -0.4768,-0.34375 -2.1133,-3.71875 -3.6368,-7.5 -1.5235,-3.78125 -3.80305,-9.40625 -5.06573,-12.5 -2.04008,-4.99854 -3.59061,-9.74149 -7.58885,-23.21375 -1.55173,-5.22869 -1.43838,-17.64164 0.18888,-20.6822 2.1423,-4.00293 8.44976,-9.47215 12.7815,-11.08289 2.2085,-0.82121 5.5084,-2.28691 7.3332,-3.25712 1.8249,-0.97023 3.6365,-1.76404 4.0259,-1.76404 0.7698,0 7.0313,12.75847 7.0313,14.32703 0,0.52843 -1.8927,2.72416 -4.2061,4.87938 -2.3133,2.15523 -4.8264,5.11339 -5.5847,6.5737 -1.404,2.7039 -0.6052,15.46989 0.968,15.46989 0.8009,0 6.7451,15.99706 6.3891,17.19474 -0.052,0.17586 1.5373,3.55322 3.5322,7.50527 4.2552,8.4294 10.6405,12.79999 18.7005,12.79999 4.5604,0 5.2929,0.44088 7.1163,4.28338 2.3331,4.91673 2.0551,9.41622 -0.6653,10.76793 -9.0717,4.50748 -18.6369,5.44773 -25.9955,2.55535 z m -199.659327,11.32185 c -0.42439,-0.4244 -1.43505,-0.78532 -2.2459,-0.80206 -0.81085,-0.0168 -5.24596,-1.32703 -9.8558,-2.91174 -7.61595,-2.6181 -8.74272,-3.4683 -12.33586,-9.3079 -2.87495,-4.67237 -3.9676,-7.97637 -4.00294,-12.10421 -0.0726,-8.48735 4.03628,-19.27521 10.34533,-27.16125 3.45718,-4.32134 15.0012,-10.40884 18.4319,-9.71969 1.20619,0.24229 4.34948,0.7871 6.9850699,1.21068 3.19879,0.5141 4.5862,1.3064 4.17305,2.38306 -0.44689,1.16456 0.78431,1.57771 4.42901996,1.48626 6.80054004,-0.17064 8.29798004,2.21846 5.92337004,9.45048 -1.82199,5.549 -4.66653,9.79786 -6.55950004,9.79786 -0.58382,0 -1.92432996,-0.86284 -2.97891996,-1.91743 -1.10048,-1.1005 -2.92646,-1.59717 -4.28571,-1.16577 -1.30256,0.41342 -2.36829,0.20104 -2.36829,-0.47196 0,-1.497 -2.2256199,-1.19459 -5.8373799,0.79318 -3.81408,2.0991 -7.92178,15.34894 -5.72051,18.4521 0.93296,1.31522 6.67417,4.24022 13.1711899,6.71038 4.35609,1.65619 5.1442,3.70982 3.19348,8.32144 -0.84989,2.00918 -1.57915,4.42847 -1.62058,5.3762 -0.0765,1.75102 -7.3671299,3.05425 -8.8410199,1.58037 z"
       inkscape:connector-curvature="0" />
    <path
       style="fill:none;stroke:#e60909;stroke-width:1.25;stroke-opacity:1"
       d="m 163.16618,-317.48489 c -0.41355,-0.66914 -1.29628,-5.8477 -1.9616,-11.50791 -2.02074,-17.19121 -2.43323,-20.23282 -2.9463,-21.72502 -0.7422,-2.15858 5.13008,-2.81535 8.68455,-0.9713 1.7173,0.89095 4.9556,1.79657 7.1963,2.01247 4.0186,0.38722 4.089,0.50495 5.1888,8.67451 1.0799,8.02225 1.0015,8.42403 -2.5,12.81247 -1.9882,2.49177 -4.3301,4.53051 -5.2042,4.53053 -0.8741,2e-5 -2.2159,1.37535 -2.9818,3.05627 -1.5508,3.40354 -4.3235,4.98237 -5.47575,3.11798 z"
       transform="translate(322.41195,416.1591)"
       id="path1673"
       inkscape:connector-curvature="0" />
    <path
       style="fill:none;stroke:#e60909;stroke-width:1.25;stroke-opacity:1"
       d="m 59.951793,-318.8459 c -2.33132,-2.85275 -5.42622,-6.36837 -6.87754,-7.8125 -5.02077,-4.99588 -4.87735,-7.66684 0.77136,-14.36588 5.28501,-6.26772 5.66508,-6.43473 19.24602,-8.4573 4.4088,-0.65659 4.78454,-0.5015 3.90175,1.61046 -0.53726,1.28536 -1.25292,3.61096 -1.59036,5.16799 -0.33743,1.55704 -1.10884,3.13711 -1.71425,3.51127 -0.60541,0.37417 -1.10075,1.7332 -1.10075,3.02007 0,3.23003 -6.44264,22.51269 -7.52185,22.51269 -0.48158,0 -2.78304,-2.33406 -5.11438,-5.1868 z"
       transform="translate(322.41195,416.1591)"
       id="path1671"
       inkscape:connector-curvature="0" />
    <path
       style="fill:none;stroke:#e60909;stroke-width:1.25;stroke-opacity:1"
       d="m -81.639637,-270.10166 c -1.33698,-0.77658 -4.90614,-1.06413 -8.26723,-0.66605 -5.81156,0.6883 -5.97237,0.61216 -9.23626,-4.37301 -3.742083,-5.71555 -3.216353,-7.28512 3.46586,-10.34725 7.10606,-3.25637 16.65,-2.99032 20.7653,0.57887 1.58539,1.375 3.85676,2.5 5.0475,2.5 1.19074,0 3.07341,1.38646 4.18374,3.08103 2.55221,3.89516 2.52956,4.41897 -0.19108,4.41897 -1.2154,0 -4.27931,1.40625 -6.80867,3.125 -5.16277,3.50819 -5.65633,3.60088 -8.95916,1.68244 z"
       transform="translate(322.41195,416.1591)"
       id="path1669"
       inkscape:connector-curvature="0" />
    <path
       style="fill:none;stroke:#e60909;stroke-width:1.25;stroke-opacity:1"
       d="m 49.498633,-254.55064 c -0.98292,-2.46076 -3.97422,-19.92354 -5.09322,-29.73346 -1.67438,-14.67876 -4.5049,-21.44362 -12.71204,-30.38138 -1.52331,-1.65892 -4.57611,-5.90801 -6.784,-9.44242 -2.20788,-3.53441 -5.16555,-7.72145 -6.57258,-9.30454 -3.31812,-3.73327 -1.81744,-4.70711 9.04634,-5.87052 6.86142,-0.7348 8.42647,-0.53993 9.70484,1.20835 1.70364,2.32986 11.31511,13.56478 14.31886,16.73741 7.7665,8.20316 9.67334,12.16489 11.82078,24.55934 1.19055,6.87156 2.09123,14.18126 2.00151,16.24376 -0.0897,2.0625 0.38771,6.28125 1.06095,9.375 0.67325,3.09375 1.50024,8.44026 1.83776,11.88114 l 0.61368,6.25613 -9.17538,0.35233 c -7.84297,0.30116 -9.30491,0.028 -10.0675,-1.88114 z"
       transform="translate(322.41195,416.1591)"
       id="path1667"
       inkscape:connector-curvature="0" />
    <path
       style="fill:none;stroke:#e60909;stroke-width:1.25;stroke-opacity:1"
       d="m 14.288553,-249.2551 c -2.65404,-2.3903 -5.3300901,-4.35905 -5.9467901,-4.375 -0.61669,-0.016 -3.52386,-1.99775 -6.46036,-4.404 -2.93651,-2.40625 -5.83724,-4.375 -6.44604,-4.375 -1.69479,0 -8.5876599,-7.66281 -10.6818499,-11.875 -1.02541,-2.0625 -2.24061,-5.4986 -2.70045,-7.63579 -0.73745,-3.42751 -0.4235,-4.06097 2.66195,-5.37127 4.5322,-1.92467 8.4015899,-5.17354 9.4627499,-7.94525 0.90675,-2.36838 -0.9416,-7.6929 -3.90017,-11.23519 -2.1161499,-2.53366 -9.0522299,-2.91896 -12.6050299,-0.70021 -2.97558,1.85829 -5.49435,0.0361 -8.39267,-6.07168 -1.86246,-3.92484 -1.85531,-4.41315 0.0962,-6.56958 1.15954,-1.28127 5.99724,-3.58006 10.75044,-5.10842 15.5863599,-5.01168 22.6200699,-1.58008 30.28437,14.77509 5.41941,11.56474 5.68229,15.73202 1.54265,24.45565 -2.9156401,6.14425 -1.76085,10.92706 3.86739,16.01771 2.5168,2.27642 5.96473,5.43099 7.66208,7.01018 1.69734,1.57917 5.28408,4.3258 7.97053,6.1036 2.68645,1.77781 4.88445,3.39287 4.88445,3.58904 0,2.26079 -2.35967,4.74122 -5.92927,6.2327 -6.94672,2.90252 -10.76402,2.30636 -16.12021,-2.51758 z"
       transform="translate(322.41195,416.1591)"
       id="path1665"
       inkscape:connector-curvature="0" />
    <path
       style="fill:none;stroke:#e60909;stroke-width:1.25;stroke-opacity:1"
       d="m 204.97453,-236.00301 c -4.2874,-1.68414 -9.9611,-7.71633 -10.6911,-11.36669 -0.4226,-2.11279 -1.2582,-4.14416 -1.8569,-4.51419 -0.5987,-0.37001 -1.0762,-3.87393 -1.0611,-7.78648 0.032,-8.18858 1.939,-12.95595 12.2237,-30.55182 14.4933,-24.79627 16.5708,-27.50335 23.9989,-31.27085 8.0753,-4.0958 19.6014,-5.65221 25.0732,-3.38571 4.4002,1.82261 4.4882,2.83466 0.8126,9.34465 -2.4542,4.34662 -3.4724,5.05292 -7.792,5.405 -6.3111,0.5144 -12.0657,4.87142 -16.4434,12.44986 -1.873,3.24233 -3.7251,6.17639 -4.1158,6.52014 -0.3908,0.34375 -1.4057,2.03125 -2.2554,3.75 -0.8497,1.71875 -2.9233,5.375 -4.6079,8.125 -1.6846,2.75 -3.0873,5.9375 -3.1171,7.08334 -0.03,1.14582 -0.7373,2.31101 -1.5721,2.58929 -2.4533,0.81777 -1.9572,13.90588 0.625,16.48808 1.1786,1.17858 2.1429,2.29752 2.1429,2.48653 0,1.28635 -4.1395,8.24491 -5.651,9.49929 -1.0169,0.84402 -1.849,2.27626 -1.849,3.18276 0,2.18767 -1.4273,2.90873 -3.8635,1.9518 z"
       transform="translate(322.41195,416.1591)"
       id="path1663"
       inkscape:connector-curvature="0" />
    <path
       style="fill:none;stroke:#e60909;stroke-width:1.25;stroke-opacity:1"
       d="m 217.90053,-228.25799 c -4.7525,-1.93991 -4.9971,-3.63343 -1.4518,-10.05058 3.8456,-6.96082 5.3611,-8.11641 11.0029,-8.39 3.3231,-0.16117 6.1536,-1.23042 8.1015,-3.06032 3.2494,-3.05271 18.7179,-27.67841 22.472,-35.77521 3.0433,-6.56376 3.2432,-13.37321 0.474,-16.1424 -1.1886,-1.18864 -2.1519,-2.82412 -2.1406,-3.63439 0.033,-2.37555 5.4158,-11.11592 7.7358,-12.56153 5.6118,-3.49674 15.5771,14.6161 14.9813,27.23001 -0.3306,6.99805 -9.6798,25.79571 -19.8424,39.8953 -10.3089,14.3027 -14.3632,18.33801 -18.4241,18.33801 -1.7716,0 -3.2211,0.5246 -3.2211,1.16576 0,2.87243 -14.5566,5.07974 -19.6875,2.98535 z"
       transform="translate(322.41195,416.1591)"
       id="path1661"
       inkscape:connector-curvature="0" />
    <path
       style="fill:none;stroke:#e60909;stroke-width:1.25;stroke-opacity:1"
       d="m -21.059037,-227.91006 c -0.71403,-0.86036 -2.76828,-4.89649 -4.56501,-8.96916 -1.79671,-4.07269 -4.62152,-10.37468 -6.27734,-14.00443 -1.65582,-3.62974 -3.01058,-7.02021 -3.01058,-7.53436 0,-0.51415 -0.98134,-2.32561 -2.18077,-4.02545 -2.16917,-3.07423 -6.43371,-12.44703 -9.86248,-21.67624 -0.98808,-2.65959 -3.4638,-8.40176 -5.50163,-12.76038 -2.03781,-4.35862 -3.70512,-8.73853 -3.70512,-9.73312 0,-2.69141 10.88381,-8.67056 14.16143,-7.77975 1.90663,0.51819 4.25417,3.98948 7.89424,11.67318 2.84938,6.01462 8.6178,17.96692 12.81873,26.56067 4.20091,8.59375 7.63523,16.08291 7.63181,16.6426 -0.004,0.55967 1.45817,4.21593 3.24798,8.125 1.7898199,3.90906 3.4327399,8.02804 3.6509499,9.15326 0.21822,1.12521 1.14445,3.26885 2.0583,4.76363 1.43563,2.34822 1.36412,2.93861 -0.52595,4.34195 -1.20312,0.89328 -2.1875,2.26528 -2.1875,3.04886 0,0.78359 -1.03125,1.4247 -2.29166,1.4247 -1.2604199,0 -2.6657699,0.3741 -3.1229999,0.83134 -1.54603,1.54602 -6.92563,1.49225 -8.2324,-0.0823 z"
       transform="translate(322.41195,416.1591)"
       id="path1659"
       inkscape:connector-curvature="0" />
    <path
       style="fill:none;stroke:#e60909;stroke-width:1.25;stroke-opacity:1"
       d="m -54.771357,-214.96548 c -3.81227,-5.61966 -4.04929,-6.45756 -2.3775,-8.40526 3.11684,-3.63126 3.55483,-6.52263 1.47001,-9.70445 -1.62691,-2.483 -2.4302,-2.79881 -4.41583,-1.73612 -2.00578,1.07345 -3.07929,0.60087 -6.18328,-2.72195 -4.69509,-5.02612 -4.32694,-8.28417 1.36599,-12.08874 2.40625,-1.60809 6.25734,-4.58054 8.55799,-6.60545 2.30063,-2.02491 4.66283,-3.68165 5.24933,-3.68165 0.5865,0 3.65654,3.62981 6.82233,8.06625 5.15346,7.22194 5.83242,8.97845 6.48655,16.78084 0.55196,6.58372 0.21817,9.99526 -1.36507,13.95216 -2.02053,5.04982 -8.21269,12.48492 -10.34248,12.41851 -0.5685,-0.0178 -2.93913,-2.84109 -5.26804,-6.27414 z"
       transform="translate(322.41195,416.1591)"
       id="path1657"
       inkscape:connector-curvature="0" />
    <path
       style="fill:none;stroke:#e60909;stroke-width:1.25;stroke-opacity:1"
       d="m -82.412607,-199.41921 c -2.86125,-0.84483 -6.31911,-2.54678 -7.68413,-3.78211 -3.58324,-3.24278 -24.815223,-31.42043 -24.815223,-32.93308 0,-0.70109 -0.5057,-1.2747 -1.12379,-1.2747 -0.61809,0 -2.37205,-2.39062 -3.8977,-5.3125 -2.35219,-4.50482 -2.65924,-6.54683 -2.01964,-13.43136 0.41485,-4.46536 1.32506,-8.30911 2.0227,-8.54167 0.69764,-0.23255 1.26843,-1.11445 1.26843,-1.95977 0,-1.60554 5.93832,-7.77979 8.15328,-8.4772 0.70306,-0.22138 3.42723,1.97355 6.0537,4.87761 l 4.775413,5.28013 -2.664903,3.38786 c -3.29123,4.18412 -2.56042,8.76802 2.595053,16.27712 1.9731,2.87387 3.58745,5.62318 3.58745,6.10957 0,1.20157 9.54816,13.36151 15.30138,19.48687 3.04153,3.23829 5.44499,4.77031 6.87499,4.38229 8.65592,-2.34874 8.72792,-2.32875 12.6729,3.51661 5.37639,7.96628 5.39955,9.65345 0.15073,10.97639 -9.96561,2.51177 -16.14876,2.92434 -21.25064,1.41794 z"
       transform="translate(322.41195,416.1591)"
       id="path1655"
       inkscape:connector-curvature="0" />
    <path
       style="fill:none;stroke:#e60909;stroke-width:1.25;stroke-opacity:1"
       d="m 259.01783,-196.56747 c -3.2108,-3.8687 -5.1777,-11.22977 -5.1407,-19.23898 0.061,-13.24426 2.5751,-17.03789 26.8634,-40.53577 11.6213,-11.24303 23.2816,-22.55125 25.9118,-25.12938 2.6303,-2.57812 5.308,-4.6875 5.9505,-4.6875 1.5572,0 12.4852,10.16124 12.4852,11.60914 0,0.62492 -3.6563,4.82862 -8.125,9.34154 -4.4688,4.51291 -8.125,8.67646 -8.125,9.25231 0,0.57586 -1.125,1.04701 -2.5,1.04701 -1.375,0 -2.5,0.72489 -2.5,1.61088 0,1.66737 -24.2256,25.87805 -25.9195,25.90346 -0.5255,0.007 -2.0125,2.22111 -3.3044,4.91827 -2.179,4.54935 -2.2634,7.89128 -0.3173,12.56739 0.5036,1.21004 -1.4393,4.20235 -5.4785,8.4375 -6.6838,7.00814 -7.6522,7.49274 -9.8005,4.90413 z"
       transform="translate(322.41195,416.1591)"
       id="path1653"
       inkscape:connector-curvature="0" />
    <path
       style="fill:none;stroke:#e60909;stroke-width:1.25;stroke-opacity:1"
       d="m 274.22223,-183.44765 c -9.0292,-2.48276 -9.3446,-4.5715 -1.7798,-11.78781 5.7932,-5.52633 6.6326,-5.92325 11.2886,-5.33825 6.6995,0.84175 10.9367,-0.94414 17.1551,-7.23063 2.8452,-2.87637 14.4543,-14.37349 25.7979,-25.54916 l 20.6248,-20.3194 4.0218,3.7569 c 2.212,2.0663 4.4345,3.7569 4.9389,3.7569 0.5045,0 1.5429,1.37327 2.3076,3.05172 1.2033,2.64089 0.9578,3.44023 -1.8235,5.9375 -1.7676,1.58718 -6.3812,6.21798 -10.2523,10.29067 -20.6839,21.76106 -38.8538,39.47011 -40.4973,39.47011 -1.0236,0 -2.6328,1.15453 -3.5761,2.5656 -1.4569,2.17961 -3.2194,2.61186 -11.7149,2.87311 -5.7877,0.17798 -12.7341,-0.44428 -16.4908,-1.47726 z"
       transform="translate(322.41195,416.1591)"
       id="path1651"
       inkscape:connector-curvature="0" />
    <path
       style="fill:none;stroke:#e60909;stroke-width:1.25;stroke-opacity:1"
       d="m 295.66203,-154.05381 c -1.04,-2.18916 -2.69,-5.36456 -3.6667,-7.05646 -2.3848,-4.13125 -1.4622,-5.03298 12.2579,-11.98059 6.3029,-3.19164 12.3035,-6.52838 13.3348,-7.41498 1.0312,-0.88658 4.3593,-2.94315 7.3957,-4.57012 3.0364,-1.62698 8.0989,-4.46793 11.25,-6.31322 3.1511,-1.8453 6.573,-3.76916 7.6043,-4.27527 1.0312,-0.5061 3.2165,-1.94945 4.856,-3.20743 3.2959,-2.52877 7.644,-3.05155 7.644,-0.91903 0,1.69393 -9.3484,15.66165 -16.653,24.88181 -4.5135,5.69721 -7.5688,7.94571 -17.8343,13.125 -6.8133,3.4375 -13.131,6.95313 -14.0395,7.8125 -0.9085,0.85938 -1.756,1.5625 -1.8833,1.5625 -0.1273,0 -2.0638,0.5255 -4.3033,1.16779 -3.8121,1.09331 -4.1924,0.91397 -5.9626,-2.8125 z"
       transform="translate(322.41195,416.1591)"
       id="path1649"
       inkscape:connector-curvature="0" />
    <path
       style="fill:none;stroke:#e60909;stroke-width:1.25;stroke-opacity:1"
       d="m -130.66105,-138.7029 c -5.17749,-4.07701 -16.85435,-12.14049 -24.37642,-16.83317 -14.13398,-8.81755 -21.62768,-15.81844 -20.55375,-19.20207 0.8334,-2.62578 -0.7835,-4.21533 -4.94574,-4.86211 -4.19826,-0.65236 -12.85741,-5.30856 -13.6335,-7.33099 -0.78447,-2.04432 4.5333,-9.86799 7.9503,-11.69671 1.12958,-0.60453 8.21414,-0.85014 15.74349,-0.54579 12.85791,0.51973 20.56471,-0.6862 20.56471,-3.21789 0,-0.51107 -3.9375,-5.05867 -8.75,-10.10578 -4.8125,-5.0471 -8.74636,-9.76383 -8.74193,-10.48162 0.01,-1.64908 9.82899,-13.18007 11.223,-13.18007 1.34789,0 18.12756,10.89615 27.34775,17.7587 2.5004,1.86104 6.72846,4.95479 9.3957,6.875 8.39476,6.0436 13.10322,11.58991 12.86675,15.15631 -0.20265,3.05618 0.22459,3.31864 6.783933,4.16744 7.95395,1.02927 16.12479,5.27353 16.12479,8.37585 0,3.15375 -6.04585,11.39636 -8.48256,11.56473 -2.59083,0.17901 -0.42884,0.27795 -18.392443,-0.84172 -22.78131,-1.41993 -27.23291,-1.35756 -27.81534,0.38973 -0.28489,0.85467 0.10862,1.55396 0.87437,1.55396 0.76579,0 3.05131,1.88944 5.07891,4.19876 2.02762,2.30933 7.63543,7.20085 12.46182,10.87005 4.82638,3.66922 8.76978,7.26415 8.76311,7.98874 -0.019,2.05831 -8.68923,12.47236 -11.15205,13.39498 -1.5018,0.56258 -4.17016,-0.7168 -8.3349,-3.99633 z"
       transform="translate(322.41195,416.1591)"
       id="path1647"
       inkscape:connector-curvature="0" />
    <path
       style="fill:none;stroke:#e60909;stroke-width:1.25;stroke-opacity:1"
       d="m 345.71283,-126.15937 c -0.874,-1.41414 4.7258,-12.31292 8.2944,-16.14344 1.2819,-1.37596 2.3308,-3.05028 2.3308,-3.7207 0,-0.67043 2.6718,-3.93019 5.9375,-7.24393 4.3258,-4.38953 10.2368,-8.14447 21.7765,-13.83331 8.7115,-4.29459 16.6737,-7.80835 17.6937,-7.80835 1.0201,0 3.393,2.62496 5.2732,5.83326 3.6221,6.18064 3.3412,8.38784 -1.3895,10.91615 -1.329,0.71032 -5.3609,3.13853 -8.9597,5.39604 -3.5988,2.2575 -6.8589,4.10455 -7.2446,4.10455 -0.3857,0 -8.9725,4.70074 -19.0817,10.44609 -24.4151,13.87575 -23.7159,13.5336 -24.6306,12.05364 z"
       transform="translate(322.41195,416.1591)"
       id="path1645"
       inkscape:connector-curvature="0" />
    <path
       style="fill:none;stroke:#e60909;stroke-width:1.25;stroke-opacity:1"
       d="m 314.65633,-117.25504 c -2.6302,-5.49275 -2.146,-6.91772 5.9986,-17.65406 2.3469,-3.09375 4.3044,-6.1063 4.3501,-6.69455 0.046,-0.58826 1.4977,-2.83826 3.2268,-5 5.9978,-7.49849 15.6062,-21.75199 15.6062,-23.15096 0,-0.55936 1.125,-2.03513 2.5,-3.27949 1.375,-1.24436 2.5,-2.74009 2.5,-3.32384 0,-1.08826 9.7173,-16.09728 18.6524,-28.80997 2.7578,-3.9236 6.8119,-8.06353 9.0093,-9.19985 3.8824,-2.00764 4.0594,-1.98265 6.264,0.88381 1.2478,1.62243 2.2812,3.82173 2.2965,4.88735 0.015,1.06563 0.6616,2.57131 1.4362,3.34598 1.984,1.98392 0.4254,7.025 -3.2498,10.51126 -1.7135,1.62539 -3.1252,3.61522 -3.137,4.42185 -0.013,0.80664 -1.2873,3.06109 -2.8341,5.00989 -1.5469,1.94881 -3.5063,4.66385 -4.3543,6.03341 -9.2595,14.95489 -12.1644,19.45679 -15.3183,23.74011 -5.3824,7.30975 -20.4084,29.16108 -22.056,32.07471 -0.7789,1.37728 -3.2798,4.42703 -5.5577,6.77722 -3.1944,3.29578 -5.1576,4.2698 -8.5839,4.25873 -3.9167,-0.0126 -4.7153,-0.58436 -6.749,-4.8316 z"
       transform="translate(322.41195,416.1591)"
       id="path1643"
       inkscape:connector-curvature="0" />
    <path
       style="fill:none;stroke:#e60909;stroke-width:1.25;stroke-opacity:1"
       d="m 327.34963,-81.678773 c -2.5561,-1.175375 -2.9992,-2.376562 -3.3376,-9.0469 -0.4379,-8.6336 2.0471,-14.183427 6.351,-14.183427 1.3681,0 4.819,-1.54687 7.6687,-3.4375 6.292,-4.17439 10.4187,-6.16472 14.5563,-7.02061 1.7187,-0.35553 7.625,-1.83188 13.125,-3.28075 29.511,-7.7742 36.4268,-9.08894 39.4105,-7.49214 1.2997,0.69563 2.8078,1.14346 3.3513,0.9952 3.8963,-1.06289 18.1511,10.73846 19.4314,16.08701 0.5684,2.37462 -0.01,2.83788 -4.4723,3.59205 -2.8186,0.47622 -6.1105,1.4814 -7.3152,2.23375 -1.7645,1.10194 -3.3384,0.55877 -8.0942,-2.79346 l -5.9038,-4.1614 -13.2039,2.75039 c -7.2621,1.51271 -14.5116,3.26987 -16.11,3.9048 -1.5984,0.63494 -3.3628,0.87222 -3.9209,0.5273 -0.5581,-0.34491 -1.7098,0.21045 -2.5594,1.23412 -0.8495,1.02368 -2.7414,1.863342 -4.2041,1.865917 -4.5278,0.0075 -10.457,4.537338 -12.1811,9.305238 -1.299,3.592262 -2.544,4.731675 -6.2654,5.733737 -2.5544,0.687825 -4.8564,1.88685 -5.1157,2.664525 -0.6302,1.890838 -7.5347,2.212425 -11.2106,0.52215 z"
       transform="translate(322.41195,416.1591)"
       id="path1641"
       inkscape:connector-curvature="0" />
    <path
       style="fill:none;stroke:#e60909;stroke-width:1.25;stroke-opacity:1"
       d="m -156.78696,-73.335123 c -5.5,-3.63215 -12.25,-7.76355 -15,-9.180875 -2.75,-1.417325 -5.5625,-3.238712 -6.25,-4.047525 -0.6875,-0.808812 -3.92188,-2.728887 -7.1875,-4.266825 -3.26562,-1.537937 -5.9375,-3.253075 -5.9375,-3.811387 0,-0.558325 -2.02035,-1.745713 -4.48967,-2.638625 -2.46932,-0.892925 -5.66451,-2.97468 -7.10042,-4.62611 -1.43591,-1.65145 -3.49368,-3.02052 -4.57283,-3.04238 -2.54592,-0.0516 -7.02419,-3.4398 -5.95699,-4.50701 0.45243,-0.45241 6.88011,-0.10263 14.28375,0.77739 7.40364,0.87998 14.86741,1.71822 16.58616,1.86276 4.16999,0.35066 8.28445,1.61451 14.67387,4.50745 6.64213,3.00735 7.12237,2.994312 11.59793,-0.31461 3.05029,-2.25517 4.18444,-2.47964 6.71135,-1.3283 2.8725,1.3088 2.96641,1.67843 1.69701,6.67946 -1.3103,5.162175 -1.23495,5.389775 3.02605,9.1408 4.3029,3.787925 4.34892,3.932912 3.00624,9.471812 -0.74995,3.09375 -2.20144,7.04315 -3.2255,8.77645 l -1.86195,3.15145 z"
       transform="translate(322.41195,416.1591)"
       id="path1639"
       inkscape:connector-curvature="0" />
    <path
       style="fill:none;stroke:#e60909;stroke-width:1.25;stroke-opacity:1"
       d="m 405.78383,-66.437236 c -1.9783,-2.824499 -2.7485,-13.471862 -0.9744,-13.471862 2.4828,0 9.0286,-7.598637 9.0286,-10.480762 0,-3.722575 0.6306,-4.175663 8.7404,-6.279313 5.1542,-1.336987 6.4982,-1.333562 7.621,0.01937 2.0132,2.425738 2.9348,11.255563 1.2814,12.2774 -0.7661,0.473463 -1.4163,1.812013 -1.4449,2.974563 -0.079,3.225512 -7.7553,11.22245 -12.792,13.326887 -2.4667,1.030675 -4.8379,2.444988 -5.2692,3.1429 -1.3084,2.117038 -4.1333,1.4284 -6.1909,-1.5092 z"
       transform="translate(322.41195,416.1591)"
       id="path1637"
       inkscape:connector-curvature="0" />
    <path
       style="fill:none;stroke:#e60909;stroke-width:1.25;stroke-opacity:1"
       d="m 347.96963,-53.702298 c -1.2412,-0.367513 -3.6629,-1.300588 -5.3816,-2.073513 -1.7188,-0.772924 -4.9345,-2.079625 -7.1461,-2.903787 -5.452,-2.031725 -6.5669,-3.672375 -7.4262,-10.92815 -0.8501,-7.1775 -0.09,-8.021375 7.5324,-8.362663 2.8407,-0.127187 6.3935,-0.896675 7.8952,-1.709975 1.5017,-0.813287 3.611,-1.478712 4.6875,-1.478712 1.858,0 2.1714,0.634362 2.4623,4.984212 0.1611,2.40955 6.1354,5.267138 8.8411,4.22885 1.1524,-0.442212 2.5802,-2.079562 3.173,-3.638537 0.8117,-2.134988 2.6925,-3.18085 7.6209,-4.237813 3.5988,-0.7718 6.9901,-0.956525 7.5361,-0.410499 1.7694,1.76945 5.8343,20.897962 4.6999,22.116774 -0.5979,0.642388 -2.0803,1.267838 -3.2941,1.389888 -1.2139,0.122 -5.794,0.899775 -10.1781,1.728275 -9.1652,1.732038 -17.7597,2.261737 -21.0223,1.29565 z"
       transform="translate(322.41195,416.1591)"
       id="path885"
       inkscape:connector-curvature="0" />
    <path
       style="fill:none;stroke:#e40b0b;stroke-width:1.25;stroke-opacity:1"
       d="m 206.77441,-342.1054 c 0,1.66227 8.03722,2.2239 10.17382,1.40402 3.1385,-1.20435 2.1661,2.48366 -1.5477,5.86989 -1.8906,1.72388 -5.6265,5.64601 -8.3019,8.71586 -2.6754,3.06984 -9.0035,9.98758 -14.0625,15.37275 -5.059,5.38517 -9.1981,10.56864 -9.1981,11.51882 0,2.17864 -3.4308,12.97637 -5.0394,15.8605 -0.6658,1.1938 -1.2106,3.26965 -1.2106,4.613 0,1.34336 -1.3552,6.27286 -3.0116,10.95446 -1.6564,4.6816 -3.3801,10.30126 -3.8304,12.48813 -1.2261,5.95435 -3.3664,7.19771 -9.04714,5.25555 -2.60472,-0.89053 -5.15775,-1.50384 -5.67337,-1.36292 -0.51563,0.14094 -0.9375,-0.30626 -0.9375,-0.99376 0,-0.6875 -0.81055,-1.25 -1.80123,-1.25 -3.31861,0 -3.3213,-2.36354 -0.0152,-13.40159 1.8077,-6.03537 4.95711,-16.59841 6.99868,-23.47341 2.04157,-6.875 4.25266,-13.90792 4.91356,-15.6287 0.6609,-1.72079 8.7097,-10.86141 17.8861,-20.3125 14.1932,-14.61787 17.2495,-17.1838 20.4676,-17.1838 z"
       transform="translate(322.41195,416.1591)"
       id="path1627"
       inkscape:connector-curvature="0" />
    <path
       style="fill:none;stroke:#fb0f0f;stroke-width:1.25;stroke-opacity:1"
       d="m 10.240158,326.0163 c -0.9435505,-0.0526 -1.9021351,-0.12609 -3.2771351,-0.44305 -1.375,-0.31697 -3.76562,-0.62549 -5.3125,-0.68562 -2.31055004,-0.0897 -2.8125,-0.82625 -2.8125,-4.12647 0,-4.15608 4.99285,-21.9415 8.18327,-29.15025 0.99921,-2.2577 1.81673,-5.02083 1.81673,-6.14028 0,-1.76617 6.0617801,-21.11386 10.1056801,-32.25481 2.70626,-7.45577 8.37387,-25.07814 9.15946,-28.47964 0.76957,-3.33211 1.05391,-3.45085 6.70675,-2.80057 8.11461,0.93345 12.39851,2.84416 12.12027,5.4059 -0.34028,3.13315 -1.89022,9.26771 -3.06326,12.12431 -2.04844,4.98839 -3.6404,10.09031 -4.48546,14.375 -0.47458,2.40625 -1.63475,5.48454 -2.57815,6.84064 -0.94341,1.35608 -1.70564,3.32483 -1.69385,4.375 0.0189,1.68346 -5.04009,18.89141 -7.54364,25.65936 -0.50864,1.375 -3.0458,9.53125 -5.63815,18.125 -2.59236,8.59375 -3.985298,16.98193 -6.412372,17.43746 -3.128424,-0.6973 -2.359055,-0.43665 -5.275143,-0.26198 z"
       transform="translate(322.41195,416.1591)"
       id="path1632"
       inkscape:connector-curvature="0" />
    <path
       style="fill:none;stroke:#f11e1e;stroke-width:1.25;stroke-opacity:1"
       d="m -133.87509,-107.64209 c -8.05472,-0.34676 -11.89205,-0.69971 -22.91182,-2.10737 -5.5,-0.70256 -12.8125,-1.31254 -16.25,-1.3555 -3.4375,-0.043 -7.9375,-0.31914 -10,-0.61375 -2.0625,-0.29463 -8.95312,-0.93596 -15.3125,-1.4252 -6.35937,-0.48925 -11.5625,-1.43166 -11.5625,-2.09424 0,-0.66259 -1.67377,-0.95904 -3.71949,-0.65879 -2.04572,0.30024 -3.87384,0.10888 -4.0625,-0.42512 -0.18865,-0.53406 -2.47059,-1.20284 -5.07098,-1.48618 -6.29185,-0.68553 -6.71693,-1.35248 -4.21112,-6.60723 1.47141,-3.08557 1.87472,-5.85692 1.29898,-8.92588 -0.79863,-4.25706 -0.70489,-4.40962 2.15256,-3.50342 5.96818,1.89271 62.13981,8.59533 84.2307,10.05073 15.26067,1.00543 17.15292,1.54278 15.60668,4.43195 -0.67366,1.25875 -1.22483,3.23824 -1.22483,4.39887 0,1.76882 -2.27447,4.56775 -5.98108,8.2755 z"
       transform="translate(322.41195,416.1591)"
       id="path931"
       inkscape:connector-curvature="0" />
  </g>
  <g
     inkscape:groupmode="layer"
     id="layer5"
     inkscape:label="Slice 5"
     style="display:inline">
    <path
       transform="translate(322.41195,416.1591)"
       style="fill:none;stroke:#770d0d;stroke-width:1.25;stroke-opacity:1"
       d="M -322.41195,-8.0340983 V -416.1591 H 93.838023 510.08803 V -8.0340983 400.0909 H 93.838023 -322.41195 Z"
       id="path987"
       inkscape:connector-curvature="0" />
  </g>
</svg>
